<svg xmlns="http://www.w3.org/2000/svg" version="1.1" xmlns:xlink="http://www.w3.org/1999/xlink" xmlns:svgjs="http://svgjs.com/svgjs" width="512" height="512" x="0" y="0" viewBox="0 0 605.69 605.69" style="enable-background:new 0 0 512 512" xml:space="preserve" class=""><g><path d="M584.068 237.556c-3.715-1.11-8.136-2.312-13.193-3.553a35.069 35.069 0 0 0-30.797-52.307H512.46l-22.338-58.202a40.308 40.308 0 0 0-32.301-25.387 1230.86 1230.86 0 0 0-154.954-7.258c-37.772 0-71.537.878-101.102 2.513 0-.838.162-1.645.162-2.493.013-36.607-19.731-70.372-51.641-88.313a19.472 19.472 0 0 0-29.111 16.857v51.248a19.986 19.986 0 0 1-6.228 14.606 21.065 21.065 0 0 1-14.969 5.582C88.89 89.685 80.549 80.212 80.799 69.066V19.413a19.18 19.18 0 0 0-9.468-16.635 19.53 19.53 0 0 0-19.542-.252C20.056 20.178.276 53.537.013 89.847s19.03 69.953 50.503 88.063v249.828a100.77 100.77 0 0 0 1.302 175.425 19.614 19.614 0 0 0 19.492-.303 19.176 19.176 0 0 0 9.488-16.625v-49.653c-.266-11.107 8.013-20.57 19.058-21.783a20.19 20.19 0 0 1 21.319 20.188v51.268a19.178 19.178 0 0 0 9.63 16.736 19.31 19.31 0 0 0 19.421.151c45.343-25.424 64.049-81.067 43.273-128.719H434.09v30.282c0 16.724 13.558 30.282 30.282 30.282h70.658c16.724 0 30.282-13.558 30.282-30.282v-32.139a30.282 30.282 0 0 0 20.188-28.425v-22.045a30.282 30.282 0 0 0 20.188-28.425V266.577a30.059 30.059 0 0 0-21.62-29.021zm1.433 29.021v96.812H472.276a137.179 137.179 0 0 0-34.814-62.836 30.455 30.455 0 0 0-20.41-7.823H188.683a30.446 30.446 0 0 0-20.4 7.813 94.705 94.705 0 0 0-16.827 20.562v-83.549c44.252-3.563 95.066-5.39 151.411-5.39 173.699 0 250.474 17.301 275.437 24.73a10.025 10.025 0 0 1 7.197 9.681zM451.25 363.389H154.485a111.583 111.583 0 0 1 27.254-47.826 10.301 10.301 0 0 1 6.945-2.645h228.368a10.296 10.296 0 0 1 6.914 2.655 111.524 111.524 0 0 1 27.284 47.816zm88.828-161.505a15.143 15.143 0 0 1 10.71 25.881 13.59 13.59 0 0 1-2.079 1.433c-5.834-1.12-12.294-2.241-19.3-3.351l-9.196-23.963zm-237.211-90.847a1213.656 1213.656 0 0 1 152.35 7.066 20.128 20.128 0 0 1 16.09 12.678l35.228 91.795a1625.334 1625.334 0 0 0-203.668-10.599c-56.194 0-106.997 1.807-151.411 5.32v-39.034a100.013 100.013 0 0 0 47.705-64.531c30.02-1.766 64.713-2.695 103.706-2.695zM141.362 584.933v-49.945a40.375 40.375 0 0 0-42.547-40.376c-21.85 1.645-38.616 20.063-38.206 41.971v48.351a80.843 80.843 0 0 1-40.376-72.677 81.994 81.994 0 0 1 44.919-69.508 10.094 10.094 0 0 0 5.552-9.014v-261.82a10.095 10.095 0 0 0-5.542-9.004 81.995 81.995 0 0 1-44.929-69.498A80.846 80.846 0 0 1 60.61 20.736v48.351c-.358 21.941 16.472 40.348 38.357 41.951a40.379 40.379 0 0 0 42.396-40.376V20.716a80.925 80.925 0 0 1-4.482 142.468 10.092 10.092 0 0 0-5.612 9.085v261.154a10.096 10.096 0 0 0 5.612 9.085 80.922 80.922 0 0 1 4.481 142.425zm403.763-80.228c0 5.575-4.519 10.094-10.094 10.094h-70.658c-5.575 0-10.094-4.519-10.094-10.094v-30.282h90.847v30.282zm10.094-50.47h-373.48a100.695 100.695 0 0 0-30.282-26.85v-3.432h413.856v20.188c0 5.575-4.519 10.094-10.094 10.094zm20.188-50.47h-423.95v-20.188h434.045v10.094c-.001 5.575-4.52 10.094-10.095 10.094z" fill="#ffffff" data-original="#000000" class=""></path><path d="M514.842 343.201h20.188c16.724 0 30.282-13.558 30.282-30.282s-13.558-30.282-30.282-30.282h-30.282c-11.15 0-20.188 9.039-20.188 20.188v10.094c0 16.724 13.558 30.282 30.282 30.282zm-10.094-40.377h30.282c5.575 0 10.094 4.519 10.094 10.094s-4.519 10.094-10.094 10.094h-20.188c-5.575 0-10.094-4.519-10.094-10.094zM272.585 262.448c0 5.575 4.519 10.094 10.094 10.094h40.376c5.575 0 10.094-4.519 10.094-10.094s-4.519-10.094-10.094-10.094h-40.376c-5.575 0-10.094 4.519-10.094 10.094zM222.115 161.507a10.094 10.094 0 0 0 7.137-2.958l10.094-10.094c3.825-3.961 3.771-10.256-.123-14.15s-10.189-3.948-14.15-.123l-10.094 10.094a10.094 10.094 0 0 0 7.136 17.231zM235.166 188.832c3.942 3.941 10.331 3.941 14.273 0l40.376-40.376c3.825-3.961 3.771-10.256-.123-14.15s-10.189-3.948-14.15-.123l-40.376 40.376c-3.94 3.942-3.94 10.331 0 14.273z" fill="#ffffff" data-original="#000000" class=""></path></g></svg>