<?xml version="1.0" encoding="utf-8"?>
<svg viewBox="0 0 500 500" xmlns="http://www.w3.org/2000/svg">
  <g style="" transform="matrix(0.166846, 0, 0, 0.166846, 156.290482, 215.052399)">
    <g id="Layer_1-2" data-name="Layer 1" transform="matrix(1, 0, 0, 1, -820.278992, -780.586304)">
      <path class="cls-1" d="M 574.611 746.43 L 953.9 746.43 C 954.18 746.43 954.44 746.31 954.61 746.09 C 958.5 741.29 998.76 686.66 1060.96 637.64 C 1098.28 608.23 1147.02 581.49 1190.67 566.94 C 1219.78 557.24 1245.98 550.37 1269.02 545.55 C 1343.22 530.01 1408.6 534.78 1408.6 534.78 C 1408.6 534.78 1499 536.64 1577.78 578.15 C 1656.56 619.66 1694.55 649.05 1730.98 685.47 C 1763.86 718.35 1783.4 749.13 1785.06 752 C 1785.23 752.29 1785.53 752.46 1785.86 752.46 L 2189.58 752.46 C 2190.26 752.46 2190.71 751.74 2190.41 751.13 L 2114.27 596.33 C 2114.1 595.98 2114.16 595.57 2114.43 595.29 L 2219.39 483.61 C 2219.67 483.31 2219.73 482.86 2219.51 482.5 C 2212.61 471.19 2107.31 301.62 1933.3 203.89 C 1932.96 203.7 1932.52 203.74 1932.23 204.01 L 1825.63 298.86 C 1825.34 299.12 1824.93 299.17 1824.59 298.99 C 1815.17 294.01 1688.63 227.83 1577.68 205.41 C 1577.26 205.33 1576.96 204.96 1576.94 204.53 L 1572.74 51.83 C 1572.73 51.4 1572.43 51.04 1572.01 50.95 C 1557.56 48 1325.83 2 1164.24 50.9 C 1163.85 51.02 1163.59 51.37 1163.58 51.78 L 1161.89 201.17 C 1161.89 201.58 1161.61 201.94 1161.21 202.05 C 1150.08 205.05 1002.47 245.51 916.82 303.96 C 916.47 304.2 916.01 304.17 915.69 303.89 L 799.89 200.66 C 799.57 200.38 799.1 200.34 798.75 200.59 C 787.28 208.61 612.78 332.01 518.5 480.79 C 518.27 481.15 518.32 481.61 518.61 481.92 L 621 591.87 C 621.27 592.16 621.33 592.6 621.13 592.95 C 616.92 600.38 573.498 676.684 555.598 742.144 C 555.118 743.914 570.23 746.22 573.05 746.44 L 574.611 746.43 Z" style="fill: none; stroke: rgb(0, 0, 0); stroke-miterlimit: 10; stroke-width: 57px;"/>
      <g class="cls-2" style="isolation: isolate;">
        <path d="m94.36,1109C31.45,1109,0,1086.19,0,1040.55c0-7.04.78-14.6,2.35-22.69l5.09-28.95h70.48l-2.35,12.91c-1.05,6.52-1.57,13.17-1.57,19.95s1.69,12.39,5.09,16.82c5.22,6.52,13.83,9.78,25.84,9.78s21.73-3.26,29.17-9.78c7.44-6.51,12.73-18.51,15.86-35.99l32.11-181.1h70.09l-32.89,186.58c-6.01,34.68-19.06,60.18-39.15,76.47-20.1,16.3-48.69,24.45-85.75,24.45Z"/>
        <path d="m449.68,1082.99c-20.75,17.34-50.06,26.01-87.9,26.01s-64.08-8.73-78.7-26.21c-10.44-11.99-15.66-28.55-15.66-49.68,0-9.39,1.04-19.69,3.13-30.9l31.72-180.32h70.48l-31.71,178.76c-1.05,6.52-1.57,13.3-1.57,20.34,0,18.26,10.96,27.38,32.89,27.38,13.05,0,23.49-3.39,31.32-10.17,7.83-6.78,13.31-19.29,16.44-37.55l31.72-178.76h70.48l-31.71,180.32c-6.53,36.51-20.16,63.43-40.92,80.77Z"/>
        <path d="m600.62,1023.34c0,17.99,12.98,26.99,38.96,26.99s38.96-8.08,38.96-24.25c0-8.61-4.44-15.65-13.31-21.12-8.88-5.48-19.64-10.04-32.3-13.69-12.66-3.65-25.32-7.88-37.98-12.71-12.66-4.82-23.43-12.38-32.3-22.69-8.88-10.3-13.31-23.14-13.31-38.53,0-65.45,42.15-98.18,126.47-98.18,30.8,0,54.09,5.81,69.89,17.41,15.79,11.61,23.69,27.71,23.69,48.31,0,7.57-.98,14.8-2.94,21.71-1.96,6.91-3.98,11.8-6.07,14.67l-3.13,4.69h-69.3c5.74-6,8.61-13.56,8.61-22.69,0-16.95-11.1-25.42-33.28-25.42-27.93,0-41.9,8.87-41.9,26.6,0,8.87,4.44,15.91,13.31,21.12,8.87,5.22,19.64,9.33,32.3,12.32,12.66,3,25.38,6.72,38.18,11.15,12.79,4.44,23.62,11.8,32.5,22.1,8.87,10.3,13.31,23.66,13.31,40.09,0,33.12-9.92,57.69-29.76,73.73-19.84,16.04-50.38,24.06-91.62,24.06s-69.44-7.3-84.57-21.91c-11.23-10.95-16.84-26.07-16.84-45.37,0-7.3.78-15.25,2.35-23.86l1.17-6.26h70.48l-.78,4.69c-.53,2.61-.78,4.96-.78,7.04Z"/>
        <path d="m1058.72,882.91h-96.32l-38.76,220.61h-70.87l38.76-220.61h-96.71l10.96-61.02h263.9l-10.96,61.02Z"/>
        <path d="m1152.31,1021.77h-117.07l8.61-49.29h117.07l-8.61,49.29Z"/>
        <path d="m1308.14,821.89l-49.33,281.63h-70.87l49.73-281.63h70.48Z"/>
        <path d="m1581.04,821.89l-49.33,281.63h-70.87l-49.33-154.11-26.62,154.11h-70.87l49.73-281.63h72.83l48.55,143.94,25.45-143.94h70.48Z"/>
        <path d="m1960.05,882.91h-96.32l-38.76,220.61h-70.87l38.76-220.61h-96.71l10.96-61.02h263.9l-10.96,61.02Z"/>
        <path d="m2073.59,821.89l-49.33,281.63h-70.87l49.73-281.63h70.48Z"/>
        <path d="m2202.8,821.89l41.9,134.95,90.06-134.95h74l-49.73,281.63h-70.87l28.19-158.81-60.3,94.66h-51.29l-26.62-94.66-28.19,158.81h-70.48l49.73-281.63h73.61Z"/>
        <path d="m2611.18,1103.52h-196.55l49.73-281.63h196.56l-10.96,61.02h-126.08l-9,52.81h104.15l-10.96,61.02h-104.15l-7.83,45.77h126.08l-10.96,61.02Z"/>
      </g>
      <g class="cls-2" style="isolation: isolate;">
        <path d="m186.24,1133.37l16.45,52.06,35.36-52.06h29.06l-19.52,108.64h-27.83l11.07-61.26-23.68,36.51h-20.14l-10.45-36.51-11.07,61.26h-27.67l19.52-108.64h28.9Z"/>
        <path d="m346.59,1242h-77.18l19.52-108.64h77.18l-4.3,23.54h-49.5l-3.54,20.37h40.89l-4.3,23.54h-40.89l-3.07,17.65h49.5l-4.3,23.54Z"/>
        <path d="m403.16,1244.12c-14.66,0-24.8-3.12-30.44-9.35-3.9-4.43-5.84-10.61-5.84-18.56,0-3.42.36-7.09,1.08-11.01l6.3-34.7c4.61-25.45,21.27-38.17,49.96-38.17,11.89,0,20.91,2.49,27.06,7.47s9.22,11.79,9.22,20.45c0,4.02-.59,8.02-1.77,12-1.18,3.97-2.33,6.92-3.46,8.83l-1.69,3.02h-27.21c3.38-3.82,5.07-9.25,5.07-16.3,0-3.72-.98-6.66-2.92-8.83-1.95-2.16-4.82-3.24-8.61-3.24-10.35,0-16.5,5.63-18.45,16.9l-5.38,30.48c-.51,2.62-.77,5.18-.77,7.7,0,6.64,4.05,9.96,12.15,9.96,9.74,0,15.58-5.38,17.53-16.15h27.67l-.77,4.38c-4.1,23.44-20.35,35.16-48.73,35.16Z"/>
        <path d="m568.58,1133.37l-19.37,108.64h-27.83l7.07-39.23h-29.98l-6.92,39.23h-27.83l19.52-108.64h27.67l-8.3,45.87h29.98l8.3-45.87h27.67Z"/>
        <path d="m625.61,1242l.92-23.69h-25.67l-7.53,23.69h-29.36l39.51-108.64h50.73l.61,108.64h-29.21Zm-6.3-82.23l-12.15,38.33h20.14l1.69-38.33h-9.69Z"/>
        <path d="m774.28,1133.37l-19.37,108.64h-27.83l-19.37-59.45-10.45,59.45h-27.83l19.52-108.64h28.59l19.06,55.53,9.99-55.53h27.67Z"/>
        <path d="m823.78,1133.37l-19.37,108.64h-27.83l19.52-108.64h27.67Z"/>
        <path d="m864.98,1244.12c-14.66,0-24.8-3.12-30.44-9.35-3.9-4.43-5.84-10.61-5.84-18.56,0-3.42.36-7.09,1.08-11.01l6.3-34.7c4.61-25.45,21.27-38.17,49.96-38.17,11.89,0,20.91,2.49,27.06,7.47s9.22,11.79,9.22,20.45c0,4.02-.59,8.02-1.77,12-1.18,3.97-2.33,6.92-3.46,8.83l-1.69,3.02h-27.21c3.38-3.82,5.07-9.25,5.07-16.3,0-3.72-.98-6.66-2.92-8.83-1.95-2.16-4.82-3.24-8.61-3.24-10.35,0-16.5,5.63-18.45,16.9l-5.38,30.48c-.51,2.62-.77,5.18-.77,7.7,0,6.64,4.05,9.96,12.15,9.96,9.74,0,15.58-5.38,17.53-16.15h27.67l-.77,4.38c-4.1,23.44-20.35,35.16-48.73,35.16Z"/>
        <path d="m954.91,1211.07c0,6.94,5.1,10.41,15.3,10.41s15.3-3.12,15.3-9.35c0-3.32-1.74-6.04-5.23-8.15-3.49-2.11-7.71-3.87-12.68-5.28-4.97-1.41-9.94-3.04-14.91-4.9-4.97-1.86-9.2-4.78-12.68-8.75-3.49-3.97-5.23-8.93-5.23-14.86,0-25.25,16.55-37.87,49.66-37.87,12.09,0,21.24,2.24,27.44,6.71,6.2,4.48,9.3,10.69,9.3,18.63,0,2.92-.38,5.71-1.15,8.37-.77,2.67-1.56,4.55-2.38,5.66l-1.23,1.81h-27.21c2.25-2.31,3.38-5.23,3.38-8.75,0-6.54-4.36-9.81-13.07-9.81-10.97,0-16.45,3.42-16.45,10.26,0,3.42,1.74,6.14,5.23,8.15,3.48,2.01,7.71,3.6,12.68,4.75,4.97,1.16,9.97,2.59,14.99,4.3,5.02,1.71,9.27,4.55,12.76,8.53,3.48,3.97,5.23,9.13,5.23,15.46,0,12.78-3.9,22.26-11.68,28.44-7.79,6.19-19.78,9.28-35.97,9.28s-27.26-2.81-33.21-8.45c-4.41-4.22-6.61-10.06-6.61-17.5,0-2.82.31-5.88.92-9.2l.46-2.41h27.67l-.31,1.81c-.21,1.01-.31,1.91-.31,2.72Z"/>
        <path d="m1099.73,1244.12c-24.8,0-37.2-8.45-37.2-25.35,0-8.25,2.33-15.01,7-20.29,4.66-5.28,10.38-7.92,17.14-7.92v-.45c-4.61,0-8.25-2.06-10.92-6.19-2.67-4.12-4-8.85-4-14.18,0-10.96,4.3-19.94,12.91-26.93,8.61-6.99,20.6-10.49,35.97-10.49,11.89,0,20.88,2.19,26.98,6.56,6.1,4.38,9.15,10.44,9.15,18.18,0,2.82-.38,5.48-1.15,8-.77,2.52-1.56,4.33-2.38,5.43l-1.23,1.51h-27.21c2.15-2.11,3.23-5.03,3.23-8.75,0-5.03-3.95-7.54-11.84-7.54-4.92,0-8.97,1.28-12.15,3.85-3.18,2.57-4.77,5.76-4.77,9.58s1.23,6.89,3.69,9.2c2.46,2.32,5.84,3.52,10.15,3.62h47.2l-3.07,16.45h-6.76l-1.69,9.2c-2.26,12.27-7.66,21.42-16.22,27.46-8.56,6.04-19.5,9.05-32.82,9.05Zm-8.3-33.35c0,2.92,1.08,5.31,3.23,7.17,2.15,1.86,5.02,2.79,8.61,2.79,11.38,0,17.83-4.38,19.37-13.13l1.69-9.2h-17.53c-10.25,0-15.37,4.12-15.37,12.37Z"/>
        <path d="m1249.93,1133.37l16.45,52.06,35.36-52.06h29.06l-19.52,108.64h-27.83l11.07-61.26-23.68,36.51h-20.14l-10.45-36.51-11.07,61.26h-27.67l19.52-108.64h28.9Z"/>
        <path d="m1392.9,1132.31c24.7,0,37.05,9.91,37.05,29.72,0,3.32-.36,6.89-1.08,10.71l-5.38,30.18c-2.46,13.98-7.79,24.34-15.99,31.08-8.2,6.74-19.73,10.11-34.59,10.11s-25.21-3.37-31.05-10.11c-4-4.62-6-11.01-6-19.16,0-3.62.41-7.59,1.23-11.92l5.38-30.18c4.82-26.96,21.62-40.44,50.43-40.44Zm-15.83,88.42c5.12,0,9.22-1.31,12.3-3.92,3.07-2.61,5.23-7.44,6.46-14.48l5.23-28.97c.31-2.01.46-3.82.46-5.43,0-8.15-4.2-12.22-12.61-12.22-10.56.2-16.86,6.09-18.91,17.65l-5.23,28.97c-.41,2.52-.62,5.13-.62,7.85,0,7.04,4.3,10.56,12.91,10.56Z"/>
        <path d="m1499.28,1133.37c11.68,0,19.99,2.52,24.91,7.54,3.69,3.82,5.53,8.65,5.53,14.48,0,2.01-.21,4.13-.62,6.34l-1.38,7.24c-1.13,5.73-3.31,10.21-6.53,13.43-3.23,3.22-6.07,4.83-8.53,4.83l-.15,1.21c2.87,0,5.79,1.56,8.76,4.68,2.97,3.12,4.46,6.79,4.46,11.01,0,1.71-.21,3.52-.62,5.43l-.92,4.68c-1.64,8.65-5.56,15.44-11.76,20.37-6.2,4.93-14.84,7.39-25.9,7.39h-51.35l19.52-108.64h44.58Zm-13.84,64.28h-14.61l-3.69,20.82h15.22c4.71,0,8.46-1.08,11.22-3.24,2.77-2.16,4.15-4.8,4.15-7.92,0-6.44-4.1-9.66-12.3-9.66Zm4.15-40.74h-11.53l-4,22.48h11.38c9.84,0,14.76-4.22,14.76-12.67,0-2.92-.9-5.28-2.69-7.09-1.79-1.81-4.43-2.72-7.92-2.72Z"/>
        <path d="m1583.38,1133.37l-19.37,108.64h-27.83l19.53-108.64h27.67Z"/>
        <path d="m1655.79,1242h-70.1l19.53-108.64h27.67l-15.22,85.1h42.43l-4.3,23.54Z"/>
        <path d="m1745.26,1242h-77.18l19.53-108.64h77.18l-4.3,23.54h-49.5l-3.54,20.37h40.89l-4.3,23.54h-40.89l-3.08,17.65h49.5l-4.3,23.54Z"/>
        <path d="m1829.2,1211.07c0,6.94,5.1,10.41,15.3,10.41s15.3-3.12,15.3-9.35c0-3.32-1.74-6.04-5.23-8.15-3.49-2.11-7.71-3.87-12.68-5.28-4.97-1.41-9.94-3.04-14.91-4.9-4.97-1.86-9.2-4.78-12.68-8.75-3.49-3.97-5.23-8.93-5.23-14.86,0-25.25,16.55-37.87,49.66-37.87,12.09,0,21.24,2.24,27.44,6.71,6.2,4.48,9.3,10.69,9.3,18.63,0,2.92-.38,5.71-1.15,8.37-.77,2.67-1.56,4.55-2.38,5.66l-1.23,1.81h-27.21c2.25-2.31,3.38-5.23,3.38-8.75,0-6.54-4.36-9.81-13.07-9.81-10.97,0-16.45,3.42-16.45,10.26,0,3.42,1.74,6.14,5.23,8.15,3.48,2.01,7.71,3.6,12.68,4.75,4.97,1.16,9.97,2.59,14.99,4.3,5.02,1.71,9.28,4.55,12.76,8.53,3.48,3.97,5.23,9.13,5.23,15.46,0,12.78-3.9,22.26-11.68,28.44-7.79,6.19-19.78,9.28-35.97,9.28s-27.26-2.81-33.21-8.45c-4.41-4.22-6.61-10.06-6.61-17.5,0-2.82.31-5.88.92-9.2l.46-2.41h27.67l-.31,1.81c-.21,1.01-.31,1.91-.31,2.72Z"/>
        <path d="m1976.63,1242h-77.18l19.52-108.64h77.18l-4.3,23.54h-49.5l-3.54,20.37h40.89l-4.3,23.54h-40.89l-3.07,17.65h49.5l-4.3,23.54Z"/>
        <path d="m2058.42,1133.37c11.68,0,19.99,2.52,24.91,7.54,3.69,3.82,5.53,8.65,5.53,14.48,0,2.01-.21,4.13-.61,6.34l-2.15,11.77c-1.23,6.54-3.36,11.82-6.38,15.84-3.02,4.02-6.38,6.89-10.07,8.6l13.99,44.06h-31.05l-12.91-40.59h-9.53l-6.3,40.59h-29.52l19.52-108.64h44.58Zm-9.69,23.54h-11.53l-4,26.25h10.76c5.43,0,9.33-1.28,11.68-3.85,2.36-2.57,3.54-5.96,3.54-10.19,0-8.15-3.49-12.22-10.45-12.22Z"/>
        <path d="m2139.13,1215.6l29.21-82.23h29.98l-41.97,108.64h-49.2l-1.23-108.64h30.13l-.46,82.23h3.54Z"/>
        <path d="m2240.44,1133.37l-19.37,108.64h-27.83l19.52-108.64h27.67Z"/>
        <path d="m2281.64,1244.12c-14.66,0-24.8-3.12-30.44-9.35-3.9-4.43-5.84-10.61-5.84-18.56,0-3.42.36-7.09,1.08-11.01l6.3-34.7c4.61-25.45,21.27-38.17,49.96-38.17,11.89,0,20.91,2.49,27.06,7.47,6.15,4.98,9.22,11.79,9.22,20.45,0,4.02-.59,8.02-1.77,12-1.18,3.97-2.33,6.92-3.46,8.83l-1.69,3.02h-27.21c3.38-3.82,5.07-9.25,5.07-16.3,0-3.72-.97-6.66-2.92-8.83-1.95-2.16-4.82-3.24-8.61-3.24-10.35,0-16.5,5.63-18.45,16.9l-5.38,30.48c-.51,2.62-.77,5.18-.77,7.7,0,6.64,4.05,9.96,12.15,9.96,9.74,0,15.58-5.38,17.53-16.15h27.67l-.77,4.38c-4.1,23.44-20.35,35.16-48.73,35.16Z"/>
        <path d="m2419.39,1242h-77.18l19.52-108.64h77.18l-4.3,23.54h-49.5l-3.54,20.37h40.89l-4.3,23.54h-40.89l-3.07,17.65h49.5l-4.3,23.54Z"/>
        <path d="m2466.43,1211.07c0,6.94,5.1,10.41,15.3,10.41s15.3-3.12,15.3-9.35c0-3.32-1.74-6.04-5.23-8.15-3.49-2.11-7.71-3.87-12.68-5.28-4.97-1.41-9.94-3.04-14.91-4.9-4.97-1.86-9.2-4.78-12.68-8.75-3.49-3.97-5.23-8.93-5.23-14.86,0-25.25,16.55-37.87,49.66-37.87,12.09,0,21.24,2.24,27.44,6.71,6.2,4.48,9.3,10.69,9.3,18.63,0,2.92-.38,5.71-1.15,8.37-.77,2.67-1.56,4.55-2.38,5.66l-1.23,1.81h-27.21c2.25-2.31,3.38-5.23,3.38-8.75,0-6.54-4.36-9.81-13.07-9.81-10.97,0-16.45,3.42-16.45,10.26,0,3.42,1.74,6.14,5.23,8.15,3.48,2.01,7.71,3.6,12.68,4.75,4.97,1.16,9.97,2.59,14.99,4.3,5.02,1.71,9.28,4.55,12.76,8.53,3.48,3.97,5.23,9.13,5.23,15.46,0,12.78-3.9,22.26-11.68,28.44-7.79,6.19-19.78,9.28-35.97,9.28s-27.26-2.81-33.21-8.45c-4.41-4.22-6.61-10.06-6.61-17.5,0-2.82.31-5.88.92-9.2l.46-2.41h27.67l-.31,1.81c-.21,1.01-.31,1.91-.31,2.72Z"/>
      </g>
    </g>
    <path class="cls-1" d="M 1344.651 534.124 L 963.791 534.144 C 963.511 534.144 963.251 534.264 963.081 534.484 C 959.191 539.284 918.941 593.924 856.741 642.944 C 819.421 672.354 770.681 699.104 727.031 713.654 C 697.921 723.354 671.721 730.224 648.681 735.044 C 574.481 750.584 509.101 745.824 509.101 745.824 C 509.101 745.824 418.701 743.974 339.921 702.464 C 261.141 660.954 223.151 631.574 186.721 595.154 C 153.841 562.274 134.301 531.494 132.641 528.624 C 132.471 528.334 132.171 528.164 131.841 528.164 L -271.879 528.184 C -272.559 528.184 -273.009 528.904 -272.709 529.514 L -196.559 684.314 C -196.389 684.664 -196.449 685.074 -196.719 685.354 L -301.669 797.044 C -301.949 797.344 -302.009 797.794 -301.789 798.154 C -294.889 809.464 -189.579 979.024 -15.559 1076.744 C -15.219 1076.934 -14.779 1076.894 -14.489 1076.624 L 92.101 981.764 C 92.391 981.504 92.801 981.454 93.141 981.634 C 102.561 986.614 229.101 1052.784 340.061 1075.194 C 340.481 1075.274 340.781 1075.644 340.801 1076.074 L 345.011 1228.774 C 345.021 1229.204 345.321 1229.564 345.741 1229.654 C 360.191 1232.604 591.921 1278.584 753.511 1229.674 C 753.901 1229.554 754.161 1229.204 754.171 1228.794 L 755.851 1079.404 C 755.851 1078.994 756.131 1078.634 756.531 1078.524 C 767.661 1075.524 915.271 1035.054 1000.911 976.594 C 1001.261 976.354 1001.721 976.384 1002.041 976.664 L 1117.851 1079.884 C 1118.171 1080.164 1118.641 1080.204 1118.991 1079.954 C 1130.461 1071.934 1304.951 948.524 1399.221 799.734 C 1399.451 799.374 1399.401 798.914 1399.111 798.604 L 1296.711 688.664 C 1296.441 688.374 1296.381 687.934 1296.581 687.584 C 1300.791 680.154 1343.941 603.064 1361.841 537.604 C 1362.321 535.834 1347.471 534.314 1344.651 534.094 L 1344.651 534.124 Z" style="fill: none; stroke: rgb(0, 0, 0); stroke-miterlimit: 10; stroke-width: 57px;"/>
  </g>
</svg>