<?xml version="1.0" encoding="UTF-8"?><svg id="uuid-22949aaf-5d90-4936-862a-0fa4f29d409e" xmlns="http://www.w3.org/2000/svg" xmlns:xlink="http://www.w3.org/1999/xlink" viewBox="0 0 557.27 500.35"><defs><style>.uuid-c55d9218-8b00-4492-be5f-c6f85dc69b12{fill:#fff;}.uuid-3fbd1804-a412-4823-9bd8-140df431cb7b{fill:url(#uuid-10e80775-1501-4b29-8d22-53f648913b0a);}.uuid-b077f01e-418a-49c9-8070-1375ab6ad48c{fill:url(#uuid-a1022955-de2c-4b6a-b514-fa627eb3ee2f);}.uuid-77738428-affe-4ca8-badc-b99cb3b27b04{fill:url(#uuid-6c1151b7-de49-451b-b47b-29c541c7b27f);}.uuid-35402f6e-ecd4-49a2-815f-8bc9ead8dbc4{fill:url(#uuid-84e22975-aecd-482f-8d67-2e0ed271c2b6);}</style><linearGradient id="uuid-a1022955-de2c-4b6a-b514-fa627eb3ee2f" x1="69.62" y1="85.7" x2="503.63" y2="85.7" gradientUnits="userSpaceOnUse"><stop offset="0" stop-color="#fff"/><stop offset="0" stop-color="#fff"/></linearGradient><linearGradient id="uuid-6c1151b7-de49-451b-b47b-29c541c7b27f" x1="208.53" y1="420.16" x2="465.32" y2="420.16" gradientUnits="userSpaceOnUse"><stop offset="0" stop-color="#fff"/><stop offset="0" stop-color="#fff"/></linearGradient><linearGradient id="uuid-10e80775-1501-4b29-8d22-53f648913b0a" x1="448.49" y1="329.56" x2="508.46" y2="329.56" gradientUnits="userSpaceOnUse"><stop offset="0" stop-color="#fff"/><stop offset="0" stop-color="#fff"/></linearGradient><linearGradient id="uuid-84e22975-aecd-482f-8d67-2e0ed271c2b6" x1="60.37" y1="353.62" x2="168.11" y2="353.62" gradientUnits="userSpaceOnUse"><stop offset="0" stop-color="#fff"/><stop offset="0" stop-color="#fff"/></linearGradient></defs><path class="uuid-b077f01e-418a-49c9-8070-1375ab6ad48c" d="m500.84,133.67c-2.92-5.56-5.96-11.07-9.06-16.54-1.49-2.64-3.08-5.25-4.88-7.69-4.99-6.75-11.64-10.22-20.18-9.63-1.19.08-2.38.22-3.57.32-1.75.15-3.2-.45-4.32-1.8-.42-.5-.81-1.02-1.2-1.53-1-1.3-1.24-2.74-.79-4.3.24-.83.61-1.63.79-2.48.4-1.9.95-3.81,1.04-5.73.29-6.15-1.84-11.52-5.96-16.03-1.97-2.16-4.18-4.1-6.35-6.07-5.39-4.89-10.95-9.57-16.97-13.67-7.78-5.3-15.93-5.73-24.28-1.29-.57.31-1.13.67-1.74.88-.6.21-1.28.4-1.89.34-1.9-.19-3.47-1.18-4.89-2.38-1.18-1-1.37-2.41-1.45-3.84-.04-.65-.05-1.3-.09-1.95-.5-7.29-3.72-13.06-9.79-17.13-1.79-1.2-3.74-2.22-5.74-3.02-5.13-2.06-10.3-4.03-15.51-5.88-3.37-1.2-6.78-2.35-10.26-3.12-8.73-1.92-16.34.13-22.42,6.92-.58.65-1.17,1.29-1.8,1.88-.82.78-1.83,1.11-2.97,1.12-3.79.03-5.49-1.08-6.99-4.6-.21-.5-.42-1-.64-1.5-1.68-3.76-4.27-6.75-7.66-9.08-3.78-2.59-8-3.91-12.52-4.06-9.44-.33-18.89-.61-28.3.46-8.94,1.02-15.25,5.75-18.76,14.09-.34.8-.53,1.68-.98,2.4-.45.71-1.02,1.53-1.74,1.84-3.9,1.7-6.53,1.74-8.76-1.25-.26-.35-.57-.65-.88-.96-5.6-5.65-12.34-7.85-20.18-6.5-1.91.33-3.81.85-5.66,1.45-7.42,2.44-14.72,5.21-21.86,8.39-1.48.66-2.97,1.35-4.34,2.22-6.78,4.31-10.56,10.42-10.89,18.54-.02.54-.03,1.08-.02,1.63.05,2.15-.92,3.65-2.69,4.87-2.39,1.65-4.7,2.11-7.22.37-.62-.43-1.35-.69-2.04-1.01-2.6-1.21-5.33-1.78-8.19-1.83-5.55-.1-10.45,1.72-14.81,5.02-7.36,5.57-14.29,11.65-20.85,18.15-.46.46-.92.92-1.33,1.43-5.54,6.83-7.34,14.36-4.29,22.8.22.61.45,1.22.62,1.85.38,1.33.19,2.6-.59,3.73-.62.89-1.29,1.74-2.01,2.54-.76.85-1.76,1.27-2.9,1.22-1.3-.06-2.6-.18-3.89-.3-3.41-.32-6.7.19-9.88,1.46-4.69,1.88-8.33,5.02-11.03,9.26-3.97,6.22-7.58,12.65-10.84,19.27-1.24,2.53-2.56,5.05-3.45,7.71-2.66,7.99-1.5,15.39,3.95,21.97.21.25.41.51.64.74.24.23.43.48.61.72.31.24.61.5.9.8.13.14.28.26.42.4.33.21.63.44.91.67,1.74,1.1,3.56,2.05,5.49,2.76,3.59,1.04,7.58,1.23,10.99,1.16.38-.06.77-.11,1.15-.17,8.18-1.33,14.11-5.56,17.8-13.12,2.81-5.74,6.08-11.25,9.14-16.86.62-1.14,1.3-2.25,1.89-3.42,1.96-3.9,2.57-8,1.96-12.32-.43-3.04-1.29-5.93-2.76-8.62-1.18-2.16-.94-4.08.58-6.02,1.6-2.05,3.5-2.73,6.01-2.01,1.24.36,2.54.58,3.83.72,6.58.74,12.48-.84,17.53-5.23.49-.43.97-.87,1.44-1.32,4.88-4.63,9.93-9.08,15.24-13.21,6.53-5.09,9.23-11.82,8.81-19.95-.05-.97-.04-1.96-.17-2.92-.47-3.38,5.08-6.84,8.01-4.78.88.62,1.81,1.19,2.75,1.74,6.8,4.01,13.86,4.78,21.18,1.58,6.47-2.82,13.06-5.29,19.76-7.51,7.44-2.48,12.21-7.6,14.72-14.93.42-1.23.77-2.48,1.17-3.72.32-.96.91-1.71,1.81-2.21,2.84-1.6,5.75-1.04,7.77,1.52.4.51.76,1.06,1.18,1.56.77.91,1.52,1.85,2.39,2.66,4.44,4.2,9.67,6.63,15.85,6.41,7.59-.27,15.18-.43,22.78-.16,7.56.27,13.65-2.93,18.42-8.73.69-.84,1.36-1.7,1.96-2.6,1.34-1.99,3.22-2.39,5.42-2,2.09.37,3.59,1.37,4.19,3.54.44,1.56.99,3.1,1.61,4.6,2.55,6.13,6.85,10.51,13.2,12.64,7.4,2.48,14.78,5.01,22.04,7.9,1.5.6,3.11.99,4.7,1.23,5.62.86,10.75-.62,15.52-3.56.92-.57,1.82-1.19,2.74-1.76,1.3-.81,2.67-.86,4.03-.19.77.38,1.53.82,2.24,1.3,1.06.71,1.61,1.75,1.62,3.03,0,1.08-.08,2.17-.11,3.25-.23,8.24,2.68,14.96,9.29,20.12,4.96,3.87,9.68,8.03,14.51,12.07,1,.84,1.94,1.74,2.96,2.54,4.86,3.8,10.39,5.26,16.49,4.51,1.5-.19,2.98-.56,4.47-.86,3.18-.65,4.64-.06,6.41,2.51,1,1.45,1.33,2.94.56,4.59-.46.98-.9,1.97-1.31,2.98-2.83,7.1-2.61,14.02,1.49,20.57,3.91,6.26,7.47,12.71,10.9,19.24,3.66,6.98,9.63,10.65,17.28,11.83.98.15,1.98.24,2.95.45h.96c.22,0,.43.02.64.03,4.41-.43,8.79-2.05,12.92-4.15.36-.33.75-.63,1.17-.89.17-.15.32-.32.51-.45,0,0,0,0,0,0,.21-.24.44-.46.68-.68.29-.47.64-.93,1.11-1.39.15-.15.28-.33.42-.5,3.46-4.2,4.97-9.07,4.9-14.47-.05-3.77-1.05-7.31-2.78-10.6Zm-388.25-3.41c-.38.89-.8,1.77-1.27,2.62-3.06,5.6-6.11,11.2-9.21,16.78-.62,1.12-1.37,2.2-2.2,3.17-.05.06-.1.1-.16.14-.08.11-.17.2-.26.31-.09.11-.18.22-.27.32,0,0,0,0,0,0,0,0,0,0,0,0-.01.01-.02.03-.03.04,0,0,0,0,0,0-.01.01-.03.03-.04.04-.18.2-.37.38-.57.56t0,0s0,0,0,0c0,0,0,0,0,0-.2.17-.4.34-.62.49h0s-.03.02-.05.03c0,0,0,0,0,0-.2.14-.42.28-.64.41,0,0,0,0,0,0-.02.01-.04.02-.06.03-.23.13-.46.25-.71.35-.06.03-.13.05-.19.07,0,0,0,0,0,0-.2.08-.4.16-.61.22-.11.03-.23.06-.34.09,0,0,0,0,0,0-.14.04-.3.06-.45.09,0,0,0,0,0,0-.09.02-.18.04-.27.06-.09.02-.17.04-.25.05-.03,0-.06.01-.09.01,0,0,0,0,0,0-.12.02-.25.03-.38.04-.06,0-.12.02-.18.02h0c-.29.03-.58.05-.89.05-.02,0-.03,0-.05,0-.02,0-.03,0-.05,0-.38,0-.74-.02-1.09-.06-.12-.01-.23-.04-.34-.05-.23-.03-.46-.06-.68-.11-.13-.03-.25-.07-.38-.1-.19-.05-.38-.1-.56-.16-.13-.04-.25-.1-.37-.14-.17-.07-.34-.13-.5-.21-.12-.06-.23-.12-.35-.18-.15-.08-.31-.17-.45-.26-.11-.07-.21-.14-.32-.21-.14-.1-.28-.2-.41-.3-.1-.08-.19-.16-.28-.24-.13-.11-.25-.23-.38-.35-.08-.08-.16-.17-.24-.26-.12-.13-.23-.26-.34-.4-.07-.09-.14-.17-.2-.26-.11-.15-.21-.3-.31-.45-.06-.09-.11-.17-.16-.26-.1-.17-.19-.34-.28-.52-.04-.08-.08-.16-.12-.24-.09-.2-.17-.4-.25-.6-.03-.07-.05-.13-.08-.19-.08-.24-.16-.48-.22-.72,0-.04-.02-.07-.03-.11-.17-.67-.25-1.35-.29-2.05-.06-.66-.05-1.33.02-1.99h0c-.04-.17-.06-.35-.03-.56.08-.74.26-1.49.51-2.2.29-.81.64-1.61,1.06-2.37,3.11-5.69,6.22-11.39,9.38-17.05.63-1.12,1.42-2.18,2.27-3.14.45-.5,1.21-.73,2.34-1.36.23,1.76.33,2.93.54,4.08.55,3.06,2.53,5.06,5.5,5.67,1.21.25,2.36.04,3.51-.35.82-.27,1.63-.57,2.47-.77.64-.15,1.26.49,1.2,1.18-.04.43-.08.88-.25,1.26Zm49.34-54.72c-.31.56-.68,1.11-1.12,1.57-.6.62-1.29,1.15-1.94,1.72-4.57,3.97-9.13,7.96-13.72,11.91-.9.77-1.83,1.52-2.84,2.14-.49.3-1.19.27-1.96.42-.08-.81-.2-1.43-.2-2.04,0-.86.15-1.73.1-2.59-.2-3.72-3.09-6.43-6.82-6.37-1.07.02-2.14.25-3.22.33-.69.05-1.29-.73-.96-1.32.64-1.11,1.28-2.28,2.17-3.17,2.53-2.51,5.13-4.97,7.81-7.32,2.85-2.49,5.81-4.85,8.75-7.23,1.09-.88,2.27-1.67,3.7-1.92.67-.12,1.37.47,1.25,1.11-.13.74-.36,1.47-.54,2.2-1.12,4.6,1.38,8.2,6.09,8.74.86.1,1.73.05,2.59.14.85.09,1.26.91.83,1.69Zm64.43-32.92c-.8.54-1.71.94-2.61,1.28-6.07,2.33-12.15,4.66-18.23,6.94-1.11.42-2.27.7-3.43.96-.39.09-.85-.06-1.26-.18-.17-.05-.29-.29-.58-.61.17-.49.36-1.09.6-1.66.3-.7.72-1.35.96-2.06,1.27-3.71-.51-7.35-4.22-8.61-.92-.31-1.9-.44-2.84-.7-.86-.24-1.16-1.17-.5-1.76.8-.71,1.66-1.4,2.61-1.89,1.74-.88,3.52-1.7,5.35-2.38,5.18-1.94,10.37-3.85,15.58-5.67,1.2-.42,2.53-.53,3.82-.6,1.09-.06,1.55.85,1.02,1.76-.22.37-.46.74-.74,1.06-3.41,3.91-1.9,9.72,3.55,11.37.69.21,1.3.66,2.15,1.1-.49.68-.74,1.32-1.22,1.64Zm74.08-24.6c-.59.48-1.25.86-1.84,1.32-3.72,2.89-4.01,7.35-.71,10.69.3.31.65.57.97.86.54.51,1.28.97.94,1.87-.31.83-1.16.92-1.89,1.04-.85.13-1.73.22-2.58.18-6.39-.33-12.77-.1-19.15.14-1.39.05-2.82.18-4.13-.53-.65-.35-.89-1.08-.43-1.61.57-.64,1.22-1.22,1.82-1.84,1.02-1.03,1.71-2.25,2-3.65.61-2.87-.54-5.05-2.79-6.78-.92-.71-2.17-1.03-2.7-2.11.09-1.04.78-1.42,1.52-1.57,1.37-.28,2.77-.62,4.16-.63,6.82-.08,13.64-.11,20.46-.04,1.37.01,2.76.45,4.09.84.84.25.94,1.27.26,1.82Zm75.76,18.48c-.28.14-.62.19-.94.23-4.93.58-7.69,6.08-4.87,10.62.17.28.34.55.49.84.3.57.74,1.22.13,1.75-.35.31-1.01.49-1.48.41-1.06-.17-2.11-.46-3.12-.82-6.11-2.18-12.22-4.37-18.32-6.6-1.11-.4-2.21-.9-3.21-1.51-1.09-.67-1-1.7.1-2.25.58-.29,1.2-.48,1.8-.73,4.51-1.93,5.87-6.96,2.86-10.72-.47-.59-.91-1.21-1.32-1.84-.1-.15-.04-.41-.07-.81.4-.19.87-.59,1.33-.58,1.07.03,2.16.15,3.19.43,7.2,2.01,14.21,4.58,21.08,7.52.89.38,1.75.88,2.52,1.46.47.36.75.97,1.25,1.65-.58.39-.97.71-1.41.94Zm64.04,43.19c-5.67-.92-9.03,3.63-8.12,8.46.15.82.64,1.8-.23,2.41-.98.69-1.85-.06-2.65-.6-.62-.42-1.19-.94-1.77-1.43-4.9-4.09-9.82-8.17-14.69-12.3-.97-.83-1.83-1.83-2.61-2.84-.53-.68-.09-1.59.75-1.73.74-.12,1.51-.19,2.26-.18,3.91.03,7.7-3.88,6.28-8.94-.23-.82-.37-1.67-.54-2.5-.02-.08.1-.18.28-.49.97-.38,1.79-.1,2.55.34.93.55,1.87,1.11,2.72,1.77,5.4,4.17,10.71,8.45,15.6,13.22.85.83,1.64,1.73,2.32,2.7.33.47.33,1.17.45,1.67-.9.86-1.8.58-2.62.44Zm48.73,67.31s0,0,0,0h0c-.15.45-.33.88-.54,1.3-.02.03-.03.06-.05.1,0,0,0,0,0,0-.1.2-.24.38-.36.57-.32.6-.72,1.15-1.18,1.66-.04.05-.09.09-.13.13-.19.2-.39.39-.6.56-.05.05-.11.09-.16.14-.25.2-.5.38-.78.55-.02.01-.03.02-.05.03-.29.18-.61.34-.93.48-.07.03-.15.06-.22.09-.25.1-.51.19-.78.27-.11.03-.23.06-.34.09-.26.06-.52.11-.79.16-.12.02-.23.04-.35.05-.39.05-.79.08-1.21.08s-.81-.03-1.19-.07c-.12-.01-.23-.04-.35-.05-.26-.04-.52-.09-.77-.15-.12-.03-.24-.06-.36-.1-.24-.07-.47-.15-.7-.24-.1-.04-.2-.07-.29-.11-.3-.13-.6-.28-.87-.44,0,0-.02,0-.02-.01-.29-.17-.56-.36-.82-.57-.06-.05-.12-.1-.19-.16-.19-.16-.37-.32-.54-.5-.07-.07-.13-.14-.2-.21-.16-.18-.32-.36-.46-.55-.05-.06-.1-.13-.15-.19-.19-.26-.36-.52-.52-.79-.41-.43-.81-.89-1.12-1.39-.75-1.19-1.35-2.47-2.05-3.69-2.67-4.71-5.37-9.4-8.01-14.12-.63-1.12-1.21-2.3-1.63-3.51-.38-1.11.49-1.91,1.65-1.61.73.19,1.44.48,2.17.68,4.41,1.19,8.04-1.22,8.67-5.77.15-1.05.25-2.1.37-3.18,1.51-.24,2.17.36,2.72,1.01.76.91,1.52,1.85,2.11,2.88,3.34,5.82,6.65,11.66,9.9,17.53.3.54.54,1.12.74,1.72.2.43.36.88.49,1.34h0s0,.03.01.04c.13.47.23.96.3,1.45,0,.04,0,.07.01.11.18,1.47.04,2.98-.41,4.38Z"/><path class="uuid-77738428-affe-4ca8-badc-b99cb3b27b04" d="m463.32,364.58c-3.56-5.96-8.89-9.38-15.66-10.51-2.23-.37-4.54-.44-6.81-.42-2.49.02-4.67-.62-6.72-2.02-4.07-2.78-8.51-4.77-13.32-5.85-13.03-2.91-24.73-.05-35.05,8.37-1.76,1.43-3.35,3.09-4.86,4.79-4.08,4.56-8.84,7.97-14.91,9.35-1.69.39-3.35.89-5.03,1.35-7.99,2.19-13.78,7.07-17.61,14.37-3.98,7.59-7.9,15.2-11.97,22.74-4.13,7.66-8.97,14.86-14.89,21.27-5.41,5.87-11.5,10.89-18.87,14.17-5.29,2.34-10.78,3.26-16.51,2.16-12.78-2.45-21.19-14.06-19.54-26.97,1.01-7.88,4.46-14.43,10.65-19.47,1.26-1.03,2.54-2.04,3.83-3.03,3-2.32,6.01-4.64,9.02-6.95,6.28-5.38,12.34-10.96,17.76-17.21,3.35-3.86,6.48-7.9,8.57-12.6.96-2.17,1.67-4.46,2.3-6.75.56-2.02.36-4.09-.35-6.08-1.19-3.37-3.83-5.27-7.39-5.29-2.59-.02-4.89.92-7.01,2.29-2.73,1.76-5.42,3.61-8.12,5.42-10.49,7.06-21.76,12.59-33.59,17-5.3,1.97-10.51,4.15-15.19,7.35-3.31,2.26-6.61,4.58-9.63,7.2-6.87,5.94-12.56,12.85-16.79,20.95-7.21,13.78-8.9,28.23-5.16,43.26,4.4,17.66,14.13,31.8,29,42.22,16.86,11.81,35.61,16.55,56.11,14.02,6.07-.75,11.86-2.56,17.47-4.96,6.51-2.78,12.64-6.25,18.25-10.58,7.77-5.98,13.8-13.45,18.54-21.99,3.81-6.86,6.63-14.13,8.81-21.66,1.17-4.06,2.2-8.17,3.28-12.26.75-2.84,1.55-5.66,2.95-8.25.56-1.04,1.14-2.11,1.9-3.02,3.53-4.22,8.18-5.52,13.47-3.67,1.72.6,3.34,1.54,4.93,2.45,1.31.75,2.5,1.72,3.78,2.53,14.11,8.87,28.56,9.44,43.13,1.34,6.59-3.66,11.49-9.18,15.07-15.82.36-.67.73-1.34,1.03-2.03.85-1.97,2.22-3.44,4.14-4.42,4.05-2.06,7.28-5.01,9.8-8.74.37-1.12.82-2.24,1.34-3.3.6-1.79,1.1-3.48,1.29-4.71.01-.07.22-3.15.31-4.13.01-.22.05-.44.07-.66.01-.2.01-.41.02-.61,0-.16.09-1.16.17-1.86-.14-.6-.37-3.62-.37-4.42.02-.31.04-.63.05-.94-.57-1.13-1.04-2.32-1.68-3.41Zm-39.62,10.13c5.54,6.55,4.78,16.54-1.73,22.18-6.68,5.78-16.66,5.11-22.44-1.51-5.6-6.42-4.85-17.05,1.77-22.5,7.68-6.32,17.28-4.23,22.41,1.83Z"/><path class="uuid-3fbd1804-a412-4823-9bd8-140df431cb7b" d="m502.83,298.29c-.29-.33-.59-.66-.89-.98-.15-.09-.29-.19-.48-.31-.08-.05-.51-.3-.71-.47-.09-.07-.17-.16-.25-.24-.18-.11-.35-.22-.52-.33-5.59-2.58-11.88-4.31-17.66-4.4-1.22.23-2.45.45-3.64.81-6.23,1.85-11.06,5.53-13.85,11.46-3.28,6.97-6.61,13.91-10.34,20.65-1.16,2.09-1.98,4.33-2.36,6.72-.75,4.75-.02,9.28,1.98,13.63.54,1.18,1.21,2.32,1.63,3.54.26.78.44,1.78.18,2.51-1.17,3.27-3.12,5.32-6.79,4.48-.11-.02-.21-.04-.32-.07-.1-.02-.21-.04-.31-.06,1.01,1.11,2.01,2.25,3.04,3.39,1.35,1.5,2.9,2.76,4.39,4.11.2.18.64.76,1.01,1.23,3,.2,5.74,1.57,7.89,3.59-.08-.23-.16-.46-.22-.69-.25-.91-.5-1.96-.28-2.84.47-1.94,1.71-3.49,3.27-4.73,1.21-.96,2.62-.75,4.05-.61,3.49.36,6.93.11,10.27-1.09,5.45-1.96,9.49-5.6,12.35-10.55,4.5-7.8,8.6-15.81,12.06-24.14.58-1.4,1.11-2.84,1.45-4.31,1.73-7.58.25-14.41-4.94-20.32Zm-8.7,16.41s0,.03,0,.05c-.02.3-.04.6-.09.9h0c.01.09.02.18,0,.27-.15,1.06-.44,2.12-.85,3.11-2.84,6.68-6.1,13.16-9.66,19.48-.62,1.11-1.53,2.09-2.44,2.99-.72.72-1.73.29-1.93-.73-.15-.74-.17-1.51-.31-2.25-.83-4.37-4.78-6.69-9.05-5.32-.82.26-1.62.62-2.45.86-.67.19-1.33-.36-1.29-1.06.03-.53.09-1.09.28-1.58.39-1.01.84-1.99,1.32-2.96,2.7-5.42,5.41-10.84,8.14-16.25.46-.92.97-1.81,1.53-2.67.14-.29.3-.57.47-.84.02-.03.04-.07.07-.1.16-.24.33-.47.51-.7.03-.04.06-.07.09-.11.21-.25.43-.48.67-.71,0,0,0,0,0,0,.25-.23.52-.45.8-.65.03-.02.05-.03.08-.05.24-.17.5-.32.77-.46.09-.05.18-.09.27-.13.22-.11.45-.2.68-.29.11-.04.22-.08.34-.12.24-.08.49-.15.75-.21.11-.03.22-.06.34-.08.37-.07.76-.13,1.17-.17.38-.03.75-.04,1.11-.03.01,0,.03,0,.04,0,.35,0,.69.04,1.02.08h0c.08,0,.16.01.24.02.13.02.26.05.39.07.21.04.41.08.61.13.13.03.25.07.38.11.19.06.37.13.55.2.12.05.23.09.34.15.18.08.36.17.53.27.1.05.2.11.29.16.19.12.37.24.55.37.07.05.13.09.2.14.03.03.06.06.09.08h0c.31.24.6.51.87.79h0s.02.02.03.03c.06.07.12.15.18.22.17.19.34.4.5.61.03.04.07.08.11.13h0s.03.05.04.07c.71,1.01,1.2,2.17,1.48,3.39h0s0,.02,0,.04c0,0,0,0,0,0,.07.3.12.59.16.89,0,.02,0,.03,0,.05.04.29.06.57.07.86,0,.02,0,.04,0,.07.01.29,0,.58,0,.87Z"/><g><path class="uuid-c55d9218-8b00-4492-be5f-c6f85dc69b12" d="m19.76,247.88C6.59,247.88,0,243.1,0,233.53c0-1.48.16-3.06.49-4.76l1.07-6.07h14.76l-.49,2.71c-.22,1.37-.33,2.76-.33,4.18s.36,2.6,1.07,3.53c1.09,1.37,2.9,2.05,5.41,2.05s4.55-.68,6.11-2.05c1.56-1.37,2.67-3.88,3.32-7.54l6.72-37.97h14.68l-6.89,39.11c-1.26,7.27-3.99,12.62-8.2,16.03-4.21,3.42-10.2,5.12-17.96,5.12Z"/><path class="uuid-c55d9218-8b00-4492-be5f-c6f85dc69b12" d="m94.26,242.43c-4.35,3.64-10.48,5.45-18.41,5.45s-13.42-1.83-16.48-5.49c-2.19-2.51-3.28-5.99-3.28-10.41,0-1.97.22-4.13.66-6.48l6.64-37.8h14.76l-6.64,37.47c-.22,1.37-.33,2.79-.33,4.26,0,3.83,2.3,5.74,6.89,5.74,2.73,0,4.92-.71,6.56-2.13,1.64-1.42,2.79-4.04,3.44-7.87l6.64-37.47h14.76l-6.64,37.8c-1.37,7.65-4.22,13.3-8.57,16.93Z"/><path class="uuid-c55d9218-8b00-4492-be5f-c6f85dc69b12" d="m125.95,229.92c0,3.77,2.72,5.66,8.16,5.66s8.16-1.69,8.16-5.08c0-1.8-.93-3.28-2.79-4.43s-4.11-2.1-6.76-2.87c-2.65-.76-5.3-1.65-7.95-2.67-2.65-1.01-4.91-2.6-6.76-4.76-1.86-2.16-2.79-4.85-2.79-8.08,0-13.72,8.83-20.58,26.49-20.58,6.45,0,11.33,1.22,14.64,3.65,3.31,2.43,4.96,5.81,4.96,10.13,0,1.59-.21,3.1-.62,4.55-.41,1.45-.83,2.47-1.27,3.08l-.66.98h-14.51c1.2-1.26,1.8-2.84,1.8-4.76,0-3.55-2.32-5.33-6.97-5.33-5.85,0-8.77,1.86-8.77,5.58,0,1.86.93,3.33,2.79,4.43,1.86,1.09,4.11,1.96,6.76,2.58,2.65.63,5.32,1.41,8,2.34,2.68.93,4.95,2.47,6.81,4.63,1.86,2.16,2.79,4.96,2.79,8.4,0,6.94-2.08,12.1-6.23,15.46-4.16,3.36-10.55,5.04-19.19,5.04s-14.54-1.53-17.71-4.59c-2.35-2.3-3.53-5.47-3.53-9.51,0-1.53.16-3.2.49-5l.25-1.31h14.76l-.16.98c-.11.55-.16,1.04-.16,1.48Z"/><path class="uuid-c55d9218-8b00-4492-be5f-c6f85dc69b12" d="m221.97,200.48h-20.17l-8.12,46.25h-14.84l8.12-46.25h-20.25l2.3-12.79h55.27l-2.3,12.79Z"/><path class="uuid-c55d9218-8b00-4492-be5f-c6f85dc69b12" d="m241.65,229.59h-24.52l1.8-10.33h24.52l-1.8,10.33Z"/><path class="uuid-c55d9218-8b00-4492-be5f-c6f85dc69b12" d="m274.37,187.69l-10.33,59.04h-14.84l10.41-59.04h14.76Z"/><path class="uuid-c55d9218-8b00-4492-be5f-c6f85dc69b12" d="m331.6,187.69l-10.33,59.04h-14.84l-10.33-32.31-5.58,32.31h-14.84l10.41-59.04h15.25l10.17,30.18,5.33-30.18h14.76Z"/><path class="uuid-c55d9218-8b00-4492-be5f-c6f85dc69b12" d="m411.14,200.48h-20.17l-8.12,46.25h-14.84l8.12-46.25h-20.25l2.3-12.79h55.27l-2.3,12.79Z"/><path class="uuid-c55d9218-8b00-4492-be5f-c6f85dc69b12" d="m435.01,187.69l-10.33,59.04h-14.84l10.41-59.04h14.76Z"/><path class="uuid-c55d9218-8b00-4492-be5f-c6f85dc69b12" d="m462.15,187.69l8.77,28.29,18.86-28.29h15.5l-10.41,59.04h-14.84l5.9-33.29-12.63,19.84h-10.74l-5.58-19.84-5.9,33.29h-14.76l10.41-59.04h15.42Z"/><path class="uuid-c55d9218-8b00-4492-be5f-c6f85dc69b12" d="m547.75,246.73h-41.16l10.41-59.04h41.16l-2.3,12.79h-26.4l-1.89,11.07h21.81l-2.3,12.79h-21.81l-1.64,9.59h26.4l-2.3,12.79Z"/></g><g><path class="uuid-c55d9218-8b00-4492-be5f-c6f85dc69b12" d="m84.13,258.82h-7.98l-3.21,18.31h-5.88l3.21-18.31h-8.02l.91-5.06h21.88l-.91,5.06Z"/><path class="uuid-c55d9218-8b00-4492-be5f-c6f85dc69b12" d="m97.12,253.76c2.47,0,4.22.54,5.26,1.62.78.82,1.17,1.86,1.17,3.12,0,.43-.04.89-.13,1.36l-.45,2.53c-.26,1.41-.71,2.54-1.35,3.41-.64.87-1.35,1.48-2.13,1.85l2.95,9.48h-6.56l-2.73-8.73h-2.01l-1.33,8.73h-6.23l4.12-23.37h9.41Zm-2.04,5.06h-2.43l-.84,5.65h2.27c1.15,0,1.97-.28,2.47-.83.5-.55.75-1.28.75-2.19,0-1.75-.74-2.63-2.21-2.63Z"/><path class="uuid-c55d9218-8b00-4492-be5f-c6f85dc69b12" d="m116.43,277.13l.19-5.1h-5.42l-1.59,5.1h-6.2l8.34-23.37h10.71l.13,23.37h-6.17Zm-1.33-17.69l-2.56,8.24h4.25l.36-8.24h-2.04Z"/><path class="uuid-c55d9218-8b00-4492-be5f-c6f85dc69b12" d="m147.82,253.76l-4.09,23.37h-5.88l-4.09-12.79-2.21,12.79h-5.88l4.12-23.37h6.04l4.02,11.94,2.11-11.94h5.84Z"/><path class="uuid-c55d9218-8b00-4492-be5f-c6f85dc69b12" d="m154.5,270.48c0,1.49,1.08,2.24,3.23,2.24s3.23-.67,3.23-2.01c0-.71-.37-1.3-1.1-1.75-.74-.45-1.63-.83-2.68-1.14-1.05-.3-2.1-.65-3.15-1.06-1.05-.4-1.94-1.03-2.68-1.88-.74-.85-1.1-1.92-1.1-3.2,0-5.43,3.49-8.15,10.48-8.15,2.55,0,4.48.48,5.79,1.44,1.31.96,1.96,2.3,1.96,4.01,0,.63-.08,1.23-.24,1.8-.16.57-.33.98-.5,1.22l-.26.39h-5.75c.48-.5.71-1.12.71-1.88,0-1.41-.92-2.11-2.76-2.11-2.32,0-3.47.74-3.47,2.21,0,.74.37,1.32,1.1,1.75.74.43,1.63.77,2.68,1.02,1.05.25,2.1.56,3.17.92,1.06.37,1.96.98,2.69,1.83.74.85,1.1,1.96,1.1,3.33,0,2.75-.82,4.79-2.47,6.12-1.64,1.33-4.18,2-7.6,2s-5.76-.61-7.01-1.82c-.93-.91-1.4-2.16-1.4-3.77,0-.61.06-1.27.19-1.98l.1-.52h5.84l-.06.39c-.04.22-.06.41-.06.58Z"/><path class="uuid-c55d9218-8b00-4492-be5f-c6f85dc69b12" d="m180.31,270.02h-3.86l-1.27,7.11h-5.84l4.12-23.37h9.9c2.45,0,4.19.56,5.23,1.69.76.87,1.14,1.97,1.14,3.31,0,.45-.04.93-.13,1.43l-.65,3.67c-.32,1.8-1.28,3.27-2.86,4.43-1.58,1.16-3.51,1.74-5.78,1.74Zm1.01-11.2h-2.92l-1.07,6.13h2.89c1.77,0,2.8-.79,3.08-2.37l.23-1.33c.04-.19.06-.45.06-.78s-.16-.68-.49-1.07c-.32-.39-.92-.58-1.79-.58Z"/><path class="uuid-c55d9218-8b00-4492-be5f-c6f85dc69b12" d="m202.67,253.53c5.21,0,7.82,2.13,7.82,6.39,0,.71-.08,1.48-.23,2.3l-1.14,6.49c-.52,3.01-1.65,5.24-3.38,6.69-1.73,1.45-4.17,2.17-7.3,2.17s-5.32-.73-6.56-2.17c-.84-1-1.27-2.37-1.27-4.12,0-.78.09-1.63.26-2.56l1.14-6.49c1.02-5.8,4.57-8.7,10.65-8.7Zm-3.34,19.02c1.08,0,1.95-.28,2.6-.84.65-.56,1.1-1.6,1.36-3.12l1.1-6.23c.06-.43.1-.82.1-1.17,0-1.75-.89-2.63-2.66-2.63-2.23.04-3.56,1.31-3.99,3.8l-1.1,6.23c-.09.54-.13,1.1-.13,1.69,0,1.51.91,2.27,2.73,2.27Z"/><path class="uuid-c55d9218-8b00-4492-be5f-c6f85dc69b12" d="m225.13,253.76c2.47,0,4.22.54,5.26,1.62.78.82,1.17,1.86,1.17,3.12,0,.43-.04.89-.13,1.36l-.45,2.53c-.26,1.41-.71,2.54-1.35,3.41-.64.87-1.35,1.48-2.13,1.85l2.95,9.48h-6.56l-2.73-8.73h-2.01l-1.33,8.73h-6.23l4.12-23.37h9.41Zm-2.04,5.06h-2.43l-.84,5.65h2.27c1.15,0,1.97-.28,2.47-.83.5-.55.75-1.28.75-2.19,0-1.75-.74-2.63-2.21-2.63Z"/><path class="uuid-c55d9218-8b00-4492-be5f-c6f85dc69b12" d="m255.71,258.82h-7.98l-3.21,18.31h-5.88l3.21-18.31h-8.02l.91-5.06h21.88l-.91,5.06Z"/><path class="uuid-c55d9218-8b00-4492-be5f-c6f85dc69b12" d="m274.5,277.13l.19-5.1h-5.42l-1.59,5.1h-6.2l8.34-23.37h10.71l.13,23.37h-6.17Zm-1.33-17.69l-2.56,8.24h4.25l.36-8.24h-2.04Z"/><path class="uuid-c55d9218-8b00-4492-be5f-c6f85dc69b12" d="m305.89,253.76l-4.09,23.37h-5.88l-4.09-12.79-2.21,12.79h-5.88l4.12-23.37h6.04l4.02,11.94,2.11-11.94h5.84Z"/><path class="uuid-c55d9218-8b00-4492-be5f-c6f85dc69b12" d="m319.59,253.76c2.83,0,4.86.71,6.07,2.14.89,1.08,1.33,2.43,1.33,4.06,0,.58-.05,1.2-.16,1.85l-1.27,7.24c-.43,2.45-1.49,4.4-3.18,5.88-1.69,1.47-3.87,2.21-6.56,2.21h-9.45l4.12-23.37h9.09Zm-2.04,5.06h-2.11l-2.3,13.24h3.08c1.02,0,1.81-.28,2.39-.83.57-.55.97-1.46,1.18-2.71l.94-5.32c.09-.48.13-.91.13-1.3,0-2.06-1.1-3.08-3.31-3.08Z"/><path class="uuid-c55d9218-8b00-4492-be5f-c6f85dc69b12" d="m349.41,253.76c2.47,0,4.22.54,5.26,1.62.78.82,1.17,1.86,1.17,3.12,0,.43-.04.89-.13,1.36l-.45,2.53c-.26,1.41-.71,2.54-1.35,3.41-.64.87-1.35,1.48-2.13,1.85l2.95,9.48h-6.56l-2.73-8.73h-2.01l-1.33,8.73h-6.23l4.12-23.37h9.41Zm-2.04,5.06h-2.43l-.84,5.65h2.27c1.15,0,1.97-.28,2.47-.83.5-.55.75-1.28.75-2.19,0-1.75-.74-2.63-2.21-2.63Z"/><path class="uuid-c55d9218-8b00-4492-be5f-c6f85dc69b12" d="m373.47,277.13h-16.29l4.12-23.37h16.29l-.91,5.06h-10.45l-.75,4.38h8.63l-.91,5.06h-8.63l-.65,3.8h10.45l-.91,5.06Z"/><path class="uuid-c55d9218-8b00-4492-be5f-c6f85dc69b12" d="m385.41,277.58c-3.09,0-5.24-.67-6.43-2.01-.82-.95-1.23-2.28-1.23-3.99,0-.74.08-1.53.23-2.37l1.33-7.47c.97-5.47,4.49-8.21,10.55-8.21,2.51,0,4.41.54,5.71,1.61,1.3,1.07,1.95,2.54,1.95,4.4,0,.87-.12,1.73-.37,2.58-.25.85-.49,1.49-.73,1.9l-.36.65h-5.75c.71-.82,1.07-1.99,1.07-3.51,0-.8-.21-1.43-.62-1.9-.41-.46-1.02-.7-1.82-.7-2.19,0-3.48,1.21-3.9,3.64l-1.14,6.56c-.11.56-.16,1.11-.16,1.66,0,1.43.85,2.14,2.56,2.14,2.06,0,3.29-1.16,3.7-3.47h5.84l-.16.94c-.87,5.04-4.3,7.56-10.29,7.56Z"/><path class="uuid-c55d9218-8b00-4492-be5f-c6f85dc69b12" d="m410.82,253.53c5.21,0,7.82,2.13,7.82,6.39,0,.71-.08,1.48-.23,2.3l-1.14,6.49c-.52,3.01-1.65,5.24-3.38,6.69-1.73,1.45-4.17,2.17-7.3,2.17s-5.32-.73-6.56-2.17c-.84-1-1.27-2.37-1.27-4.12,0-.78.09-1.63.26-2.56l1.14-6.49c1.02-5.8,4.57-8.7,10.65-8.7Zm-3.34,19.02c1.08,0,1.95-.28,2.6-.84.65-.56,1.1-1.6,1.36-3.12l1.1-6.23c.06-.43.1-.82.1-1.17,0-1.75-.89-2.63-2.66-2.63-2.23.04-3.56,1.31-3.99,3.8l-1.1,6.23c-.09.54-.13,1.1-.13,1.69,0,1.51.91,2.27,2.73,2.27Z"/><path class="uuid-c55d9218-8b00-4492-be5f-c6f85dc69b12" d="m429.07,271.45l6.17-17.69h6.33l-8.86,23.37h-10.39l-.26-23.37h6.36l-.1,17.69h.75Z"/><path class="uuid-c55d9218-8b00-4492-be5f-c6f85dc69b12" d="m456.79,277.13h-16.29l4.12-23.37h16.29l-.91,5.06h-10.45l-.75,4.38h8.63l-.91,5.06h-8.63l-.65,3.8h10.45l-.91,5.06Z"/><path class="uuid-c55d9218-8b00-4492-be5f-c6f85dc69b12" d="m474.05,253.76c2.47,0,4.22.54,5.26,1.62.78.82,1.17,1.86,1.17,3.12,0,.43-.04.89-.13,1.36l-.45,2.53c-.26,1.41-.71,2.54-1.35,3.41-.64.87-1.35,1.48-2.13,1.85l2.95,9.48h-6.56l-2.73-8.73h-2.01l-1.33,8.73h-6.23l4.12-23.37h9.41Zm-2.04,5.06h-2.43l-.84,5.65h2.27c1.15,0,1.97-.28,2.47-.83.5-.55.75-1.28.75-2.19,0-1.75-.74-2.63-2.21-2.63Z"/><path class="uuid-c55d9218-8b00-4492-be5f-c6f85dc69b12" d="m491.94,261.97l5.49-8.21h5.84l-10,14.38-1.59,8.99h-5.88l1.59-8.99-4.93-14.38h6.2l2.53,8.21h.75Z"/></g><path class="uuid-35402f6e-ecd4-49a2-815f-8bc9ead8dbc4" d="m167.82,388.69c-.87-5.59-3.63-10.17-7.97-13.77-5.76-4.78-11.44-9.66-16.81-14.88-5.48-5.33-12.11-6.89-19.5-5.88-1.18.16-2.34.48-3.52.62-4.28.52-7.38-3.68-5.69-7.66.72-1.69,1.49-3.37,2.08-5.12,2.08-6.19,1.62-12.22-1.6-17.9-3.75-6.61-7.36-13.28-10.67-20.11-2.99-6.15-8-9.85-14.53-11.57-1.34-.35-2.71-.56-4.08-.8-5.94-.38-11,.85-15.82,3.8-.23.26-.49.5-.77.73-.04.03-.08.07-.12.1-.01.01-.03.02-.04.03-.12.11-.25.22-.39.32l-.75.56c-.24.18-.49.34-.73.48-.01.02-.02.03-.04.05-.2.25-.42.49-.64.74-6.42,7.41-7.43,15.69-3.64,24.55,2.81,6.58,6.12,12.94,9.72,19.13,1.36,2.34,2.66,4.75,4.26,6.93,5.3,7.23,12.43,10.69,21.43,9.55,3.14-.4,5.19.64,6.89,3.11,1.15,1.68,1.44,3.34.68,5.21-.33.8-.63,1.62-.88,2.45-1.03,3.48-1.32,7.01-.64,10.61.87,4.61,2.97,8.59,6.23,11.93,6.45,6.6,13.39,12.68,20.59,18.45.93.74,1.91,1.44,2.93,2.05,4.85,2.86,10.08,3.84,15.65,2.96,10.58-1.67,20.5-12.95,18.37-26.68Zm-66.07-54.83c-.62-.16-1.21-.45-1.83-.64-4.67-1.42-8.22.66-9.23,5.39-.22,1.04-.4,2.08-.7,3.68-1.12-.69-1.86-.96-2.32-1.47-.79-.87-1.49-1.86-2.1-2.87-3.47-5.87-6.64-11.9-9.51-18.08-.45-.97-.84-2-1.06-3.05-.01-.05,0-.1-.01-.16-.16-.79-.22-1.61-.19-2.42,0,0,0,0,0-.01.05-1.14.28-2.28.7-3.34,0,0,0,0,0,0,0,0,0,0,0-.01.3-.75.69-1.46,1.17-2.11,0,0,0,0,0,0,.48-.64,1.05-1.22,1.71-1.7t0,0s0,0,0,0c.4-.29.83-.53,1.29-.74.65-.36,1.38-.63,2.17-.8.06-.01.13-.02.2-.04.31-.06.64-.1.97-.13.1,0,.2-.02.3-.02.41-.02.83-.02,1.27.01.4.03.78.08,1.14.15.11.02.22.05.33.08.25.06.5.12.73.19.11.04.22.08.33.12.23.08.44.17.66.26.1.04.19.09.28.13.23.11.45.24.66.37.06.04.12.07.18.11.58.39,1.09.84,1.53,1.34h0c.5.53.91,1.12,1.25,1.76,0,0,0,0,0,0,.12.14.25.28.35.43.59.9,1.05,1.89,1.55,2.84,2.78,5.25,5.59,10.5,8.33,15.77.59,1.14,1.08,2.35,1.42,3.58.27.98-.55,1.63-1.57,1.36Zm51.06,64.1c-2.61,3.41-6.34,5.09-11.22,3.03-1.27-.54-2.45-1.38-3.54-2.25-5.42-4.32-10.62-8.9-15.55-13.77-.92-.91-1.76-1.91-2.56-2.93-.32-.4-.46-.96-.61-1.47-.15-.5.34-1.11.88-1.11.64,0,1.29.09,1.93.14,0,.01,0,.03,0,.05.21.03.43.06.64.08,4.41.36,7.49-2.43,7.59-6.89.03-1.08-.05-2.16-.02-3.23.02-.54.66-.94,1.19-.79.41.12.84.24,1.18.48.79.56,1.56,1.16,2.29,1.81,5.11,4.51,10.22,9.02,15.32,13.55.73.65,1.47,1.29,2.1,2.03,3.01,3.49,3.15,7.66.37,11.29Z"/></svg>