<?xml version="1.0" encoding="UTF-8"?>
<svg id="Layer_1" data-name="Layer 1" xmlns="http://www.w3.org/2000/svg" viewBox="0 0 445.06 343.9">
  <defs>
    <style>
      .cls-1 {
        fill: #fff;
        stroke-miterlimit: 10;
      }

      .cls-1, .cls-2 {
        stroke: #fff;
      }

      .cls-2 {
        fill: none;
        stroke-miterlimit: 1.67;
        stroke-width: 9.51px;
      }
    </style>
  </defs>
  <g id="Layer_1-2" data-name="Layer 1-2">
    <path class="cls-2" d="m96.37,124.54h63.28s.09-.02.12-.06c.65-.8,7.37-9.92,17.74-18.09,6.23-4.91,14.36-9.37,21.64-11.8,4.86-1.62,9.23-2.76,13.07-3.57,12.38-2.59,23.29-1.8,23.29-1.8,0,0,15.08.31,28.23,7.24,13.14,6.93,19.48,11.83,25.56,17.91,5.49,5.49,8.75,10.62,9.02,11.1.03.05.08.08.13.08h67.36c.11,0,.19-.12.14-.22l-12.7-25.83c-.03-.06-.02-.13.03-.17l17.51-18.63c.05-.05.06-.13.02-.19-1.15-1.89-18.72-30.18-47.75-46.48-.06-.03-.13-.03-.18.02l-17.79,15.83s-.12.05-.17.02c-1.57-.83-22.68-11.87-41.2-15.61-.07-.01-.12-.08-.12-.15l-.7-25.48c0-.07-.05-.13-.12-.15-2.41-.49-41.07-8.17-68.03,0-.07.02-.11.08-.11.15l-.28,24.93c0,.07-.05.13-.11.15-1.86.5-26.49,7.25-40.78,17-.06.04-.14.04-.19-.01l-19.32-17.22c-.05-.05-.13-.05-.19-.01-1.91,1.34-31.03,21.93-46.76,46.75-.04.06-.03.14.02.19l17.08,18.34s.06.12.02.18c-.7,1.24-7.95,13.97-10.93,24.89-.08.3,2.44.68,2.91.72h.26Z"/>
    <g>
      <path class="cls-1" d="m16.24,185.03c-10.5,0-15.74-3.81-15.74-11.42,0-1.17.13-2.44.39-3.79l.85-4.83h11.76l-.39,2.15c-.18,1.09-.26,2.2-.26,3.33s.28,2.07.85,2.81c.87,1.09,2.31,1.63,4.31,1.63s3.63-.54,4.87-1.63c1.24-1.09,2.12-3.09,2.65-6l5.36-30.22h11.69l-5.49,31.13c-1,5.79-3.18,10.04-6.53,12.76-3.35,2.72-8.12,4.08-14.31,4.08h0Z"/>
      <path class="cls-1" d="m75.53,180.69c-3.46,2.89-8.35,4.34-14.67,4.34s-10.69-1.46-13.13-4.37c-1.74-2-2.61-4.76-2.61-8.29,0-1.57.17-3.29.52-5.16l5.29-30.09h11.76l-5.29,29.83c-.18,1.09-.26,2.22-.26,3.39,0,3.05,1.83,4.57,5.49,4.57,2.18,0,3.92-.57,5.23-1.7,1.31-1.13,2.22-3.22,2.74-6.27l5.29-29.83h11.76l-5.29,30.09c-1.09,6.09-3.36,10.58-6.83,13.48h0Z"/>
      <path class="cls-1" d="m100.71,170.74c0,3,2.17,4.5,6.5,4.5s6.5-1.35,6.5-4.05c0-1.44-.74-2.61-2.22-3.52-1.48-.91-3.28-1.68-5.39-2.28s-4.22-1.31-6.34-2.12c-2.11-.8-3.91-2.07-5.39-3.79-1.48-1.72-2.22-3.86-2.22-6.43,0-10.92,7.03-16.38,21.1-16.38,5.14,0,9.02.97,11.66,2.9,2.63,1.94,3.95,4.62,3.95,8.06,0,1.26-.16,2.47-.49,3.62-.33,1.15-.66,1.97-1.01,2.45l-.52.78h-11.56c.96-1,1.44-2.26,1.44-3.79,0-2.83-1.85-4.24-5.55-4.24-4.66,0-6.99,1.48-6.99,4.44,0,1.48.74,2.65,2.22,3.52,1.48.87,3.28,1.56,5.39,2.06,2.11.5,4.23,1.12,6.37,1.86,2.13.74,3.94,1.97,5.42,3.69,1.48,1.72,2.22,3.95,2.22,6.69,0,5.53-1.66,9.63-4.97,12.3s-8.41,4.01-15.29,4.01-11.59-1.22-14.11-3.66c-1.87-1.83-2.81-4.35-2.81-7.57,0-1.22.13-2.54.39-3.98l.2-1.04h11.76l-.13.78c-.09.44-.13.83-.13,1.17h0Z"/>
      <path class="cls-1" d="m177.14,147.31h-16.07l-6.47,36.81h-11.82l6.47-36.81h-16.14l1.83-10.18h44.03l-1.83,10.18h0Z"/>
      <path class="cls-1" d="m192.76,170.48h-19.53l1.44-8.22h19.53l-1.44,8.22Z"/>
      <path class="cls-1" d="m218.76,137.13l-8.23,46.99h-11.82l8.3-46.99h11.76,0Z"/>
      <path class="cls-1" d="m264.29,137.13l-8.23,46.99h-11.82l-8.23-25.71-4.44,25.71h-11.82l8.3-46.99h12.15l8.1,24.02,4.25-24.02h11.76,0Z"/>
      <path class="cls-1" d="m327.53,147.31h-16.07l-6.47,36.81h-11.82l6.47-36.81h-16.14l1.83-10.18h44.03l-1.83,10.18h0Z"/>
      <path class="cls-1" d="m346.47,137.13l-8.23,46.99h-11.82l8.3-46.99h11.76,0Z"/>
      <path class="cls-1" d="m368.03,137.13l6.99,22.52,15.03-22.52h12.35l-8.3,46.99h-11.82l4.7-26.5-10.06,15.79h-8.56l-4.44-15.79-4.7,26.5h-11.76l8.3-46.99h12.28,0Z"/>
      <path class="cls-1" d="m436.16,184.12h-32.79l8.3-46.99h32.8l-1.83,10.18h-21.04l-1.5,8.81h17.38l-1.83,10.18h-17.38l-1.31,7.64h21.04l-1.83,10.18h0Z"/>
    </g>
    <g>
      <path class="cls-1" d="m31.57,189.1l2.74,8.69,5.9-8.69h4.85l-3.26,18.13h-4.64l1.85-10.22-3.95,6.09h-3.36l-1.74-6.09-1.85,10.22h-4.62l3.26-18.13s4.82,0,4.82,0Z"/>
      <path class="cls-1" d="m58.33,207.22h-12.88l3.26-18.13h12.88l-.72,3.93h-8.26l-.59,3.4h6.82l-.72,3.93h-6.82l-.51,2.94h8.26l-.72,3.93h0Z"/>
      <path class="cls-1" d="m67.77,207.57c-2.45,0-4.14-.52-5.08-1.56-.65-.74-.97-1.77-.97-3.1,0-.57.06-1.18.18-1.84l1.05-5.79c.77-4.25,3.55-6.37,8.34-6.37,1.98,0,3.49.42,4.51,1.25s1.54,1.97,1.54,3.41c0,.67-.1,1.34-.3,2-.2.66-.39,1.15-.58,1.47l-.28.5h-4.54c.56-.64.85-1.54.85-2.72,0-.62-.16-1.11-.49-1.47-.33-.36-.8-.54-1.44-.54-1.73,0-2.75.94-3.08,2.82l-.9,5.09c-.09.44-.13.86-.13,1.28,0,1.11.68,1.66,2.03,1.66,1.63,0,2.6-.9,2.92-2.69h4.62l-.13.73c-.68,3.91-3.4,5.87-8.13,5.87h0Z"/>
      <path class="cls-1" d="m95.37,189.1l-3.23,18.13h-4.64l1.18-6.55h-5l-1.15,6.55h-4.64l3.26-18.13h4.62l-1.38,7.65h5l1.38-7.65h4.62Z"/>
      <path class="cls-1" d="m104.88,207.22l.15-3.95h-4.28l-1.26,3.95h-4.9l6.59-18.13h8.46l.1,18.13h-4.87,0Zm-1.05-13.72l-2.03,6.4h3.36l.28-6.4h-1.62,0Z"/>
      <path class="cls-1" d="m129.69,189.1l-3.23,18.13h-4.64l-3.23-9.92-1.74,9.92h-4.64l3.26-18.13h4.77l3.18,9.26,1.67-9.26h4.62Z"/>
      <path class="cls-1" d="m137.94,189.1l-3.23,18.13h-4.64l3.26-18.13h4.62Z"/>
      <path class="cls-1" d="m144.82,207.57c-2.45,0-4.14-.52-5.08-1.56-.65-.74-.97-1.77-.97-3.1,0-.57.06-1.18.18-1.84l1.05-5.79c.77-4.25,3.55-6.37,8.34-6.37,1.98,0,3.49.42,4.51,1.25s1.54,1.97,1.54,3.41c0,.67-.1,1.34-.3,2-.2.66-.39,1.15-.58,1.47l-.28.5h-4.54c.56-.64.85-1.54.85-2.72,0-.62-.16-1.11-.49-1.47-.33-.36-.8-.54-1.44-.54-1.73,0-2.75.94-3.08,2.82l-.9,5.09c-.09.44-.13.86-.13,1.28,0,1.11.68,1.66,2.03,1.66,1.63,0,2.6-.9,2.92-2.69h4.62l-.13.73c-.68,3.91-3.4,5.87-8.13,5.87h0Z"/>
      <path class="cls-1" d="m159.82,202.06c0,1.16.85,1.74,2.55,1.74s2.55-.52,2.55-1.56c0-.55-.29-1.01-.87-1.36s-1.29-.65-2.12-.88-1.66-.51-2.49-.82-1.53-.8-2.12-1.46c-.58-.66-.87-1.49-.87-2.48,0-4.21,2.76-6.32,8.29-6.32,2.02,0,3.54.37,4.58,1.12,1.03.75,1.55,1.78,1.55,3.11,0,.49-.06.95-.19,1.4-.13.45-.26.76-.4.94l-.21.3h-4.54c.38-.39.56-.87.56-1.46,0-1.09-.73-1.64-2.18-1.64-1.83,0-2.74.57-2.74,1.71,0,.57.29,1.02.87,1.36.58.34,1.29.6,2.12.79.83.19,1.66.43,2.5.72.84.29,1.55.76,2.13,1.42.58.66.87,1.52.87,2.58,0,2.13-.65,3.71-1.95,4.75-1.3,1.03-3.3,1.55-6,1.55s-4.55-.47-5.54-1.41c-.74-.7-1.1-1.68-1.1-2.92,0-.47.05-.98.15-1.53l.08-.4h4.62l-.05.3c-.04.17-.05.32-.05.45h0Z"/>
      <path class="cls-1" d="m183.99,207.57c-4.14,0-6.21-1.41-6.21-4.23,0-1.38.39-2.5,1.17-3.39.78-.88,1.73-1.32,2.86-1.32v-.08c-.77,0-1.38-.34-1.82-1.03-.45-.69-.67-1.48-.67-2.37,0-1.83.72-3.33,2.15-4.49,1.44-1.17,3.44-1.75,6-1.75,1.98,0,3.48.37,4.5,1.09,1.02.73,1.53,1.74,1.53,3.03,0,.47-.06.91-.19,1.33s-.26.72-.4.91l-.21.25h-4.54c.36-.35.54-.84.54-1.46,0-.84-.66-1.26-1.98-1.26-.82,0-1.5.21-2.03.64s-.8.96-.8,1.6.21,1.15.62,1.53c.41.39.97.59,1.69.6h7.88l-.51,2.74h-1.13l-.28,1.53c-.38,2.05-1.28,3.57-2.71,4.58-1.43,1.01-3.25,1.51-5.48,1.51h0Zm-1.38-5.56c0,.49.18.89.54,1.2s.84.47,1.44.47c1.9,0,2.97-.73,3.23-2.19l.28-1.53h-2.92c-1.71,0-2.56.69-2.56,2.06h0Z"/>
      <path class="cls-1" d="m209.05,189.1l2.74,8.69,5.9-8.69h4.85l-3.26,18.13h-4.64l1.85-10.22-3.95,6.09h-3.36l-1.74-6.09-1.85,10.22h-4.62l3.26-18.13h4.82Z"/>
      <path class="cls-1" d="m232.9,188.92c4.12,0,6.18,1.65,6.18,4.96,0,.55-.06,1.15-.18,1.79l-.9,5.04c-.41,2.33-1.3,4.06-2.67,5.19s-3.29,1.69-5.77,1.69-4.21-.56-5.18-1.69c-.67-.77-1-1.84-1-3.2,0-.6.07-1.27.21-1.99l.9-5.04c.8-4.5,3.61-6.75,8.41-6.75h0Zm-2.64,14.75c.85,0,1.54-.22,2.05-.65.51-.44.87-1.24,1.08-2.42l.87-4.83c.05-.34.08-.64.08-.91,0-1.36-.7-2.04-2.1-2.04-1.76.03-2.81,1.02-3.16,2.94l-.87,4.83c-.07.42-.1.86-.1,1.31,0,1.17.72,1.76,2.15,1.76h0Z"/>
      <path class="cls-1" d="m250.65,189.1c1.95,0,3.34.42,4.16,1.26.62.64.92,1.44.92,2.42,0,.34-.04.69-.1,1.06l-.23,1.21c-.19.96-.55,1.7-1.09,2.24-.54.54-1.01.81-1.42.81l-.03.2c.48,0,.97.26,1.46.78s.74,1.13.74,1.84c0,.29-.04.59-.1.91l-.15.78c-.27,1.44-.93,2.58-1.96,3.4s-2.48,1.23-4.32,1.23h-8.57l3.26-18.13h7.44Zm-2.31,10.73h-2.44l-.62,3.47h2.54c.79,0,1.41-.18,1.87-.54.46-.36.69-.8.69-1.32,0-1.07-.68-1.61-2.05-1.61h0Zm.69-6.8h-1.92l-.67,3.75h1.9c1.64,0,2.46-.7,2.46-2.11,0-.49-.15-.88-.45-1.18-.3-.3-.74-.45-1.32-.45Z"/>
      <path class="cls-1" d="m264.68,189.1l-3.23,18.13h-4.64l3.26-18.13h4.62,0Z"/>
      <path class="cls-1" d="m276.76,207.22h-11.7l3.26-18.13h4.62l-2.54,14.2h7.08l-.72,3.93h0Z"/>
      <path class="cls-1" d="m291.69,207.22h-12.88l3.26-18.13h12.88l-.72,3.93h-8.26l-.59,3.4h6.82l-.72,3.93h-6.82l-.51,2.94h8.26l-.72,3.93h0Z"/>
      <path class="cls-1" d="m305.69,202.06c0,1.16.85,1.74,2.55,1.74s2.55-.52,2.55-1.56c0-.55-.29-1.01-.87-1.36s-1.29-.65-2.12-.88c-.83-.24-1.66-.51-2.49-.82-.83-.31-1.53-.8-2.12-1.46-.58-.66-.87-1.49-.87-2.48,0-4.21,2.76-6.32,8.29-6.32,2.02,0,3.54.37,4.58,1.12,1.03.75,1.55,1.78,1.55,3.11,0,.49-.06.95-.19,1.4-.13.45-.26.76-.4.94l-.21.3h-4.54c.38-.39.56-.87.56-1.46,0-1.09-.73-1.64-2.18-1.64-1.83,0-2.74.57-2.74,1.71,0,.57.29,1.02.87,1.36.58.34,1.29.6,2.12.79.83.19,1.66.43,2.5.72.84.29,1.55.76,2.13,1.42.58.66.87,1.52.87,2.58,0,2.13-.65,3.71-1.95,4.75-1.3,1.03-3.3,1.55-6,1.55s-4.55-.47-5.54-1.41c-.74-.7-1.1-1.68-1.1-2.92,0-.47.05-.98.15-1.53l.08-.4h4.62l-.05.3c-.04.17-.05.32-.05.45h0Z"/>
      <path class="cls-1" d="m330.29,207.22h-12.88l3.26-18.13h12.88l-.72,3.93h-8.26l-.59,3.4h6.82l-.72,3.93h-6.82l-.51,2.94h8.26l-.72,3.93h0Z"/>
      <path class="cls-1" d="m343.94,189.1c1.95,0,3.34.42,4.16,1.26.62.64.92,1.44.92,2.42,0,.34-.04.69-.1,1.06l-.36,1.96c-.21,1.09-.56,1.97-1.06,2.64-.5.67-1.06,1.15-1.68,1.43l2.33,7.35h-5.18l-2.15-6.77h-1.59l-1.05,6.77h-4.93l3.26-18.13h7.44,0Zm-1.62,3.93h-1.92l-.67,4.38h1.8c.91,0,1.56-.21,1.95-.64.39-.43.59-.99.59-1.7,0-1.36-.58-2.04-1.74-2.04h0Z"/>
      <path class="cls-1" d="m357.41,202.82l4.87-13.72h5l-7,18.13h-8.21l-.21-18.13h5.03l-.08,13.72h.59Z"/>
      <path class="cls-1" d="m374.31,189.1l-3.23,18.13h-4.64l3.26-18.13h4.62Z"/>
      <path class="cls-1" d="m381.18,207.57c-2.45,0-4.14-.52-5.08-1.56-.65-.74-.97-1.77-.97-3.1,0-.57.06-1.18.18-1.84l1.05-5.79c.77-4.25,3.55-6.37,8.34-6.37,1.98,0,3.49.42,4.51,1.25,1.03.83,1.54,1.97,1.54,3.41,0,.67-.1,1.34-.3,2-.2.66-.39,1.15-.58,1.47l-.28.5h-4.54c.56-.64.85-1.54.85-2.72,0-.62-.16-1.11-.49-1.47-.33-.36-.8-.54-1.44-.54-1.73,0-2.75.94-3.08,2.82l-.9,5.09c-.09.44-.13.86-.13,1.28,0,1.11.68,1.66,2.03,1.66,1.63,0,2.6-.9,2.92-2.69h4.62l-.13.73c-.68,3.91-3.4,5.87-8.13,5.87h0Z"/>
      <path class="cls-1" d="m404.17,207.22h-12.88l3.26-18.13h12.88l-.72,3.93h-8.26l-.59,3.4h6.82l-.72,3.93h-6.82l-.51,2.94h8.26l-.72,3.93h0Z"/>
      <path class="cls-1" d="m412.01,202.06c0,1.16.85,1.74,2.55,1.74s2.55-.52,2.55-1.56c0-.55-.29-1.01-.87-1.36s-1.29-.65-2.12-.88-1.66-.51-2.49-.82-1.53-.8-2.12-1.46c-.58-.66-.87-1.49-.87-2.48,0-4.21,2.76-6.32,8.29-6.32,2.02,0,3.54.37,4.58,1.12,1.03.75,1.55,1.78,1.55,3.11,0,.49-.06.95-.19,1.4-.13.45-.26.76-.4.94l-.21.3h-4.54c.38-.39.56-.87.56-1.46,0-1.09-.73-1.64-2.18-1.64-1.83,0-2.74.57-2.74,1.71,0,.57.29,1.02.87,1.36.58.34,1.29.6,2.12.79.83.19,1.66.43,2.5.72.84.29,1.55.76,2.13,1.42.58.66.87,1.52.87,2.58,0,2.13-.65,3.71-1.95,4.75-1.3,1.03-3.3,1.55-6,1.55s-4.55-.47-5.54-1.41c-.74-.7-1.1-1.68-1.1-2.92,0-.47.05-.98.15-1.53l.08-.4h4.62l-.05.3c-.04.17-.05.32-.05.45h0Z"/>
    </g>
  </g>
  <path class="cls-2" d="m361.71,219.35h-63.54s-.09.02-.12.06c-.65.8-7.36,9.92-17.74,18.1-6.23,4.91-14.36,9.37-21.64,11.8-4.86,1.62-9.23,2.76-13.07,3.57-12.38,2.59-23.29,1.8-23.29,1.8,0,0-15.08-.31-28.23-7.23s-19.48-11.83-25.56-17.9c-5.49-5.49-8.75-10.62-9.02-11.1-.03-.05-.08-.08-.13-.08h-67.36c-.11,0-.19.12-.14.23l12.71,25.83c.03.06.02.13-.03.17l-17.51,18.64c-.05.05-.06.13-.02.19,1.15,1.89,18.72,30.18,47.76,46.48.06.03.13.03.18-.02l17.78-15.83s.12-.05.17-.02c1.57.83,22.68,11.87,41.2,15.61.07.01.12.08.12.15l.7,25.48c0,.07.05.13.12.15,2.41.49,41.07,8.16,68.03,0,.07-.02.11-.08.11-.15l.28-24.93c0-.07.05-.13.11-.15,1.86-.5,26.49-7.25,40.77-17.01.06-.04.14-.04.19.01l19.32,17.22c.05.05.13.05.19.01,1.91-1.34,31.03-21.93,46.76-46.75.04-.06.03-.14-.02-.19l-17.09-18.34s-.06-.12-.02-.18c.7-1.24,7.9-14.1,10.89-25.02.08-.3-2.4-.55-2.87-.59h0Z"/>
</svg>