<svg xmlns="http://www.w3.org/2000/svg" version="1.1" xmlns:xlink="http://www.w3.org/1999/xlink" xmlns:svgjs="http://svgjs.com/svgjs" width="512" height="512" x="0" y="0" viewBox="0 0 64 64" style="enable-background:new 0 0 512 512" xml:space="preserve" class=""><g><g data-name="Tow Truck"><path d="M42 38h4v2h-4zM11 50h2v2h-2zM48 50h2v2h-2z" fill="#ffffff" data-original="#000000" class=""></path><path d="m61.31 33.574-4.863-9A3 3 0 0 0 53.807 23H40.121L8.482 8.254a.993.993 0 0 0-.764-.033 1 1 0 0 0-.565.517l-1.69 3.63a1 1 0 0 0 .485 1.332l.052.021V19a1 1 0 0 0 1 1 1 1 0 1 1-1 1H4a3 3 0 1 0 4-2.829v-3.518l26 12.119V41H3a1 1 0 0 0-1 1v8a2 2 0 0 0 2 2h2.09a5.993 5.993 0 0 0 11.82 0h25.18a5.993 5.993 0 0 0 11.82 0H59a3 3 0 0 0 3-3V36.108a4.959 4.959 0 0 0-.69-2.534Zm-6.623-8.049L59.267 34H44v-9h9.807a1 1 0 0 1 .88.525ZM8.544 10.489 38 24.218v2.213L7.7 12.306ZM36 27.705l2 .932V41h-2ZM12 55a4 4 0 1 1 4-4 4 4 0 0 1-4 4Zm0-10a6.006 6.006 0 0 0-5.91 5H4v-7h34v7H17.91A6.006 6.006 0 0 0 12 45Zm37 10a4 4 0 1 1 4-4 4 4 0 0 1-4 4Zm10-5h-4.09a5.993 5.993 0 0 0-11.82 0H40V25h2v10a1 1 0 0 0 1 1h16.985c0 .036.015.071.015.108V38h-4a2 2 0 0 0-2 2v2a2 2 0 0 0 2 2h4v2h-3v2h3v1a1 1 0 0 1-1 1Zm1-10v2h-4v-2Z" fill="#ffffff" data-original="#000000" class=""></path><path d="M10.816 39h12.368a2.982 2.982 0 0 0 5.632 0H31a1 1 0 0 0 1-1v-4a1 1 0 0 0-.291-.706l-1.991-2a1 1 0 0 0-.709-.294H27.37l-6.719-5.759A1 1 0 0 0 20 25h-8.764a2.983 2.983 0 0 0-2.683 1.658L6.382 31H4a2 2 0 0 0-2 2v5a1 1 0 0 0 1 1h2.184a2.982 2.982 0 0 0 5.632 0ZM26 39a1 1 0 1 1 1-1 1 1 0 0 1-1 1Zm-1.7-8H17v-4h2.63Zm-13.958-3.447a.994.994 0 0 1 .894-.553H15v4H8.618ZM4 33h24.594L30 34.413V37h-1.184a2.982 2.982 0 0 0-5.632 0H10.816a2.982 2.982 0 0 0-5.632 0H4Zm4 6a1 1 0 1 1 1-1 1 1 0 0 1-1 1Z" fill="#ffffff" data-original="#000000" class=""></path></g></g></svg>