<svg xmlns="http://www.w3.org/2000/svg" version="1.1" xmlns:xlink="http://www.w3.org/1999/xlink" xmlns:svgjs="http://svgjs.com/svgjs" width="512" height="512" x="0" y="0" viewBox="0 0 60 60" style="enable-background:new 0 0 512 512" xml:space="preserve" class=""><g><g fill="#000" fill-rule="nonzero"><path d="M40.968 58.336c7.929 1.3 6.253 1.02 8.882 1.45l.987.16a3.991 3.991 0 0 0 4.59-3.3l4.519-27.628a3.989 3.989 0 0 0-3.3-4.589l-.959-.158-.026-.009C47.33 22.9 49.18 23.194 46.767 22.8a4.009 4.009 0 0 0-4.584 3.305l-.854 5.224-1.818-.3a2.251 2.251 0 0 0-2.585 1.857L36.581 35H23.422l-.345-2.109a2.257 2.257 0 0 0-2.59-1.858l-1.815.3-.855-5.225a4.01 4.01 0 0 0-4.589-3.3c-2.19.355-.219.037-8.886 1.453l-.026.01-.952.156a3.988 3.988 0 0 0-3.31 4.588l4.519 27.621a3.991 3.991 0 0 0 4.589 3.311l.987-.161c1.072-.175-.418.076 8.883-1.45a4.025 4.025 0 0 0 3.305-4.6l-1.046-6.393 1.818-.3a2.228 2.228 0 0 0 1.467-.913 2.251 2.251 0 0 0 .391-1.675L24.4 41h11.2l-.566 3.461c-.096.588.045 1.19.392 1.674.346.488.873.817 1.464.912l1.818.3-1.047 6.4a4.024 4.024 0 0 0 3.307 4.589zm11.866-23.008L47.4 31.4l.446-2.728L53.28 32.6zm-.361 2.207-.445 2.728-5.437-3.928.446-2.728zm-.806 4.935-.446 2.73-5.437-3.929.446-2.728zm-.807 4.935-.446 2.727-5.437-3.932.446-2.728zm-6.243 1.006 5.437 3.928-.446 2.728-5.437-3.928zm9.73-22.338-.706 4.321-5.441-3.929.223-1.362c2.019.329.754.121 5.924.97zm-11.082 30.61.545-3.338 5.437 3.929-.061.376zM57.623 27.2c.312.43.438.966.35 1.49l-4.521 27.633a1.991 1.991 0 0 1-2.291 1.65l5.16-31.573c.523.082.992.37 1.302.8zm-13.466-.766a2.013 2.013 0 0 1 2.291-1.656L41.29 56.362a2.016 2.016 0 0 1-1.653-2.3l1.2-7.351c0-.011.009-.019.011-.029v-.028zM16.735 56.683l-5.92.967-.062-.377 5.437-3.928zm-.906-5.544-5.436 3.928-.446-2.728 5.436-3.928zm-.807-4.939-5.436 3.932L9.14 47.4l5.436-3.928zm-.806-4.934L8.779 45.2l-.446-2.73 5.437-3.928zm-.807-4.935-5.437 3.932-.446-2.728 5.437-3.928zM12.6 31.4l-5.434 3.929L6.72 32.6l5.436-3.929zm-1.029-6.3.223 1.363-5.435 3.931-.707-4.321c5.576-.915 4.237-.696 5.921-.973zM7.349 57.623a1.975 1.975 0 0 1-.8-1.3L2.027 28.687A1.991 1.991 0 0 1 3.679 26.4l5.162 31.573a1.98 1.98 0 0 1-1.492-.35zm11.361-1.261-5.164-31.584a2.012 2.012 0 0 1 2.3 1.653l3.311 20.237v.013l.005.013 1.2 7.362a2.018 2.018 0 0 1-1.652 2.306zm4.237-11.388a.231.231 0 0 1-.158.1l-1.821.3-1.974-12.069 1.815-.3a.26.26 0 0 1 .294.2l1.89 11.568a.268.268 0 0 1-.046.201zM24.075 39l-.327-2h12.506l-.327 2zm13.136 6.072a.229.229 0 0 1-.155-.1.26.26 0 0 1-.047-.192L38.9 33.209a.255.255 0 0 1 .29-.2l1.816.3-1.974 12.061z" fill="#ffffff" data-original="#000000"></path><path d="M30 4a1 1 0 0 0-1 1v4.067a11.018 11.018 0 0 0-7.814 4.385l-4.5-4.184a1 1 0 1 0-1.362 1.464L29 23.436V30a1 1 0 0 0 2 0v-6.564l13.681-12.7a1 1 0 1 0-1.362-1.464l-4.505 4.184A11.018 11.018 0 0 0 31 9.067V5a1 1 0 0 0-1-1zm-7.333 10.826A9.011 9.011 0 0 1 29 11.067v9.64zm14.666 0L31 20.707v-9.64a9.011 9.011 0 0 1 6.333 3.759zM17 2h-4a1 1 0 0 0 0 2h4a1 1 0 0 0 0-2zM45 0a1 1 0 0 0-1 1v1h-1a1 1 0 0 0 0 2h1v1a1 1 0 0 0 2 0V4h1a1 1 0 0 0 0-2h-1V1a1 1 0 0 0-1-1z" fill="#ffffff" data-original="#000000"></path></g></g></svg>