<svg xmlns="http://www.w3.org/2000/svg" version="1.1" xmlns:xlink="http://www.w3.org/1999/xlink" xmlns:svgjs="http://svgjs.com/svgjs" width="512" height="512" x="0" y="0" viewBox="0 0 512 512" style="enable-background:new 0 0 512 512" xml:space="preserve" class=""><g><path d="M148.645 429.419H49.548c-18.214 0-33.032 14.818-33.032 33.032v16.516c0 18.214 14.818 33.032 33.032 33.032h99.097c18.214 0 33.032-14.818 33.032-33.032v-16.516c0-18.214-14.818-33.032-33.032-33.032zm16.516 49.549c0 9.107-7.41 16.516-16.516 16.516H49.548c-9.107 0-16.516-7.41-16.516-16.516v-16.516c0-9.107 7.41-16.516 16.516-16.516h99.097c9.107 0 16.516 7.41 16.516 16.516v16.516z" fill="#ffffff" data-original="#000000" class=""></path><path d="m43.709 460.033 10.678 10.677-10.678 10.676 11.679 11.679 22.354-22.355-22.354-22.356zM84.999 460.033l10.678 10.677-10.678 10.676 11.679 11.679 22.355-22.355-22.355-22.356zM126.29 460.033l10.677 10.677-10.677 10.676 11.679 11.679 22.354-22.355-22.354-22.356z" fill="#ffffff" data-original="#000000" class=""></path><path d="M495.484 313.806v-38.84c0-29.092-21.769-53.752-50.636-57.359l-18.672-2.334-33.047-55.078c-10.388-17.312-29.381-28.066-49.569-28.066H217.99c-20.189 0-39.182 10.754-49.569 28.065l-33.204 55.341-88.063 16.512C19.831 237.171 0 261.065 0 288.863v49.718c0 13.66 11.114 24.774 24.774 24.774H82.58v-24.774c0-11.16 4.383-21.614 12.341-29.441 7.956-7.824 18.465-12.027 29.659-11.843 22.376.374 40.581 19.26 40.581 42.1v23.959h82.581v49.548h-16.516v49.548h-33.032V512h148.645v-49.548h-33.032v-49.548H297.29v-49.548h38.621c9.294 19.512 29.205 33.032 52.218 33.032 23.013 0 42.922-13.521 52.218-33.032h55.137c9.107 0 16.516-7.41 16.516-16.516v-16.516c0-9.108-7.41-16.518-16.516-16.518zm-19.632-54.528a41.041 41.041 0 0 1 3.115 15.688v5.807h-16.516c-6.433 0-12.02-3.697-14.745-9.078a61.669 61.669 0 0 0 28.146-12.417zm-419.92 12.619c-2.762 5.273-8.289 8.877-14.642 8.877H17.323a41.255 41.255 0 0 1 8.909-18.5 82.165 82.165 0 0 0 29.7 9.623zm10.133 74.942h-41.29c-4.553 0-8.258-3.705-8.258-8.258v-8.258h50.138a58.718 58.718 0 0 0-.589 8.258v8.258zm58.791-66.057c-15.613-.248-30.377 5.629-41.515 16.581a57.859 57.859 0 0 0-11.732 16.443H16.516V297.29H41.29c18.214 0 33.032-14.818 33.032-33.032V256h-8.258a65.865 65.865 0 0 1-24.953-4.897 41.125 41.125 0 0 1 9.085-2.822l95.361-17.88 37.025-61.708c7.42-12.365 20.986-20.046 35.406-20.046h125.57c14.421 0 27.987 7.681 35.406 20.046l37.183 61.972 26.651 3.332c9.279 1.16 17.524 5.371 23.795 11.539A45.195 45.195 0 0 1 437.677 256h-8.258v8.258c0 18.214 14.818 33.032 33.032 33.032h16.516v16.516h-38.621c-9.294-19.512-29.205-33.032-52.218-33.032-1.312 0-2.609.06-3.899.147v-59.902l-21.081-42.163c-4.225-8.448-12.715-13.695-22.159-13.695h-123c-8.652 0-16.793 4.609-21.244 12.028l-26.082 43.47-.455 83.851c-10.381-14.114-26.846-23.419-45.352-23.728zm216.134-99.105a8.216 8.216 0 0 1 7.387 4.565l14.234 28.468h-65.32v-33.032h43.699zm-60.216 33.033h-87.279l17.414-29.023a8.296 8.296 0 0 1 7.08-4.009h62.785v33.032zm-93.651 16.516h93.652v82.581h-94.1l.448-82.581zm110.167 0h70.424v53.283c-13.993 5.301-25.41 15.878-31.803 29.298H297.29v-82.581zm33.033 264.258H214.71v-16.516h115.613v16.516zm-82.581-33.032V429.42h49.548v33.032h-49.548zm33.032-49.549h-16.516v-49.548h16.516v49.548zm-99.097-66.064v-7.443a58.96 58.96 0 0 0-.707-9.074h149.952c-.388 2.698-.6 5.453-.6 8.258s.212 5.56.6 8.258H181.677zm206.452 33.032c-22.767 0-41.29-18.523-41.29-41.29s18.523-41.29 41.29-41.29 41.29 18.523 41.29 41.29-18.522 41.29-41.29 41.29zm107.355-33.032h-50.148c.388-2.698.6-5.453.6-8.258s-.212-5.56-.6-8.258h50.148v16.516z" fill="#ffffff" data-original="#000000" class=""></path><path d="M388.129 313.806c-13.661 0-24.774 11.113-24.774 24.774s11.113 24.774 24.774 24.774 24.774-11.113 24.774-24.774-11.113-24.774-24.774-24.774zm0 33.033c-4.553 0-8.258-3.705-8.258-8.258 0-4.553 3.705-8.258 8.258-8.258 4.553 0 8.258 3.705 8.258 8.258 0 4.553-3.705 8.258-8.258 8.258zM19.315 99.097l7.172 12.394c13.262 22.917 37.921 37.154 64.352 37.154 24.808 0 48.055-12.542 61.783-33.032H470.71c22.767 0 41.29-18.523 41.29-41.29s-18.523-41.29-41.29-41.29H152.621C138.893 12.542 115.647 0 90.839 0c-26.431 0-51.09 14.237-64.352 37.154l-7.172 12.394h63.266v49.548H19.315zm31.111-66.065C61.105 22.61 75.593 16.516 90.839 16.516c20.556 0 39.737 11.078 50.056 28.91l.577.998a57.773 57.773 0 0 1 7.173 27.898v8.258h247.742V66.065H164.702a74.504 74.504 0 0 0-3.806-16.516H470.71c13.66 0 24.774 11.114 24.774 24.774S484.37 99.097 470.71 99.097H143.281l-2.386 4.122c-10.319 17.832-29.5 28.91-50.056 28.91-15.245 0-29.734-6.093-40.413-16.516h48.671V33.032H50.426z" fill="#ffffff" data-original="#000000" class=""></path><path d="M445.935 66.065h16.516v16.516h-16.516zM412.903 66.065h16.516v16.516h-16.516z" fill="#ffffff" data-original="#000000" class=""></path></g></svg>