<svg xmlns="http://www.w3.org/2000/svg" version="1.1" xmlns:xlink="http://www.w3.org/1999/xlink" xmlns:svgjs="http://svgjs.com/svgjs" width="512" height="512" x="0" y="0" viewBox="0 0 512 512" style="enable-background:new 0 0 512 512" xml:space="preserve"><g><path d="M106.09 287.239H54.1l-37.52 37.51a31.011 31.011 0 0 0-9.08 21.92v65.35c0 8.28 6.72 15 15 15h155.031M138.781 287.239h194.881l37.51 37.51c5.81 5.81 9.08 13.7 9.08 21.92v65.35c0 8.28-6.72 15-15 15H210.221" style="stroke-width:15;stroke-linecap:round;stroke-linejoin:round;stroke-miterlimit:10;" fill="none" stroke="#ffffff" stroke-width="15" stroke-linecap="round" stroke-linejoin="round" stroke-miterlimit="10" data-original="#000000"></path><path d="M100.689 364.891H69.564c-17.121 0-31-13.879-31-31v-31.125l46.594 30.718h46.594l-31.063 31.407zM287.063 364.891l31.296-.173c17.054-.095 30.828-13.946 30.828-31v-30.952l-46.594 30.718h-46.594l31.064 31.407zM26.59 427.015h74.099v16.062c0 8.284-6.716 15-15 15H41.59c-8.284 0-15-6.716-15-15v-16.062zM287.063 427.015h74.099v16.062c0 8.284-6.716 15-15 15h-44.099c-8.284 0-15-6.716-15-15v-16.062zM106.09 287.239H54.1l27.09-59.51a31.023 31.023 0 0 1 28.22-18.15h111.87M253.961 209.579h24.39c12.14 0 23.17 7.1 28.21 18.15l27.1 59.51h-194.88" style="stroke-width:15;stroke-linecap:round;stroke-linejoin:round;stroke-miterlimit:10;" fill="none" stroke="#ffffff" stroke-width="15" stroke-linecap="round" stroke-linejoin="round" stroke-miterlimit="10" data-original="#000000"></path><path d="M333.657 287.235h31.062c8.578 0 15.531-6.954 15.531-15.531v0c0-8.578-6.954-15.531-15.531-15.531h-45.208l14.146 31.062zM54.096 287.235H23.033c-8.578 0-15.531-6.954-15.531-15.531v0c0-8.578 6.954-15.531 15.531-15.531h45.208l-14.145 31.062zM131.751 333.484h124.25M380.358 364.546h61.487c17.121 0 31-13.879 31-31V147.109M473.438 147.109h0c-17.155 0-31.062-13.907-31.062-31.062V84.985H504.5v31.062c0 17.155-13.907 31.062-31.062 31.062zM457.906 53.922v31.063M488.969 53.922v31.063M193.876 53.922l-46.593 77.656h46.593v46.594l46.594-77.656h-46.594zM100.689 427.015v-62.124M287.063 427.015v-62.124M131.751 395.953h124.25M147.283 364.546h93.187" style="stroke-width:15;stroke-linecap:round;stroke-linejoin:round;stroke-miterlimit:10;" fill="none" stroke="#ffffff" stroke-width="15" stroke-linecap="round" stroke-linejoin="round" stroke-miterlimit="10" data-original="#000000"></path></g></svg>