<svg xmlns="http://www.w3.org/2000/svg" version="1.1" xmlns:xlink="http://www.w3.org/1999/xlink" xmlns:svgjs="http://svgjs.com/svgjs" width="512" height="512" x="0" y="0" viewBox="0 0 463.999 463.999" style="enable-background:new 0 0 512 512" xml:space="preserve" class=""><g><path d="M359.997 31.999c-13.255 0-24 10.745-24 24s10.745 24 24 24 24-10.745 24-24-10.745-24-24-24zm0 32a8 8 0 1 1 0-16 8 8 0 0 1 0 16z" fill="#ffffff" data-original="#000000"></path><path d="M446.44 46.442a30.201 30.201 0 0 0-19.091-19.091l-25.456-8.488c-20.489-23.139-55.855-25.287-78.994-4.798a55.99 55.99 0 0 0-4.798 4.798l-25.456 8.488c-15.822 5.278-24.369 22.383-19.091 38.205a30.2 30.2 0 0 0 19.091 19.091l25.464 8.488a55.36 55.36 0 0 0 9.888 8.528v20.112l-53.456 53.424-20.888-20.888a8 8 0 0 0-11.312 0l-192 192a8 8 0 0 0 0 11.312l18.344 18.376-50.344 50.344a8 8 0 0 0 2.504 13.008l56 24a8 8 0 0 0 8.808-1.696l34.344-34.344 18.344 18.344a8 8 0 0 0 11.312 0l192-192a8 8 0 0 0 0-11.312l-21.888-21.888 51.472-52.144a71.574 71.574 0 0 0 20.76-50.576v-16.072a55.36 55.36 0 0 0 9.888-8.528l25.464-8.488c15.822-5.278 24.369-22.383 19.091-38.205zM78.165 446.511l-40.152-17.208 41.984-41.992 28.688 28.688-30.52 30.512zm246.52-198.512L143.997 428.687l-18.344-18.344-40-40-18.344-18.344 180.688-180.688 76.688 76.688zm51.312-130.296a55.7 55.7 0 0 1-16.152 39.344l-50.696 51.384-22.6-22.592 55.104-55.096a8 8 0 0 0 2.344-5.656v-15.488c.24.072.496.096.736.168 1.792.492 3.608.892 5.44 1.2.68.128 1.336.312 2.016.408a51.808 51.808 0 0 0 15.616 0c.68-.096 1.336-.28 2.016-.4 1.824-.336 3.648-.696 5.44-1.208.24-.072.496-.096.736-.168v8.104zm55.278-57.215a14.208 14.208 0 0 1-8.99 8.99l-27.568 9.184a7.998 7.998 0 0 0-3.672 2.536 40.142 40.142 0 0 1-11.048 9.368 38.525 38.525 0 0 1-8.448 3.584 40.309 40.309 0 0 1-23.072 0 38.525 38.525 0 0 1-8.448-3.584 40.143 40.143 0 0 1-11.064-9.368 7.996 7.996 0 0 0-3.688-2.536l-27.568-9.184c-7.445-2.48-11.47-10.525-8.99-17.97a14.208 14.208 0 0 1 8.99-8.99l27.568-9.184a8 8 0 0 0 3.68-2.536c13.892-17.143 39.05-19.779 56.193-5.887a39.956 39.956 0 0 1 5.887 5.887 8 8 0 0 0 3.68 2.536l27.568 9.184c7.445 2.48 11.47 10.526 8.99 17.97z" fill="#ffffff" data-original="#000000"></path><path d="M303.997 47.999h16v16h-16zM399.997 47.999h16v16h-16zM90.342 354.343l96.003-96.002 11.313 11.314-96.002 96.002zM194.342 250.338l15.998-15.997 11.313 11.314-15.997 15.997z" fill="#ffffff" data-original="#000000"></path></g></svg>