<svg xmlns="http://www.w3.org/2000/svg" version="1.1" xmlns:xlink="http://www.w3.org/1999/xlink" xmlns:svgjs="http://svgjs.com/svgjs" width="512" height="512" x="0" y="0" viewBox="0 0 64 64" style="enable-background:new 0 0 512 512" xml:space="preserve" class=""><g><path d="M32 28a4 4 0 1 0 4 4 4 4 0 0 0-4-4Zm0 6a2 2 0 1 1 2-2 2 2 0 0 1-2 2ZM42.293 10.707 45.586 14l-3.293 3.293a1 1 0 0 0 0 1.414l3 3a1 1 0 0 0 1.414 0L50 18.414l3.293 3.293a1 1 0 0 0 1.414 0l3-3a1 1 0 0 0 0-1.414L54.414 14l3.293-3.293a1 1 0 0 0 0-1.414l-3-3a1 1 0 0 0-1.414 0L50 9.586l-3.293-3.293a1 1 0 0 0-1.414 0l-3 3a1 1 0 0 0 0 1.414ZM46 8.414l3.293 3.293a1 1 0 0 0 1.414 0L54 8.414 55.586 10l-3.293 3.293a1 1 0 0 0 0 1.414L55.586 18 54 19.586l-3.293-3.293a1 1 0 0 0-1.414 0L46 19.586 44.414 18l3.293-3.293a1 1 0 0 0 0-1.414L44.414 10Z" fill="#ffffff" data-original="#000000" class=""></path><path d="M50 1a12.9 12.9 0 0 0-6.953 2.035A31 31 0 0 0 10.158 54H5.5a4.5 4.5 0 0 0 0 9h53a4.5 4.5 0 0 0 0-9h-4.659a31 31 0 0 0 7.124-33.047A12.977 12.977 0 0 0 50 1Zm11 13A11 11 0 1 1 50 3a11.013 11.013 0 0 1 11 11ZM43.23 46.044l-5.623-8.437 8.436 5.623a18.125 18.125 0 0 1-2.813 2.814ZM47.2 41.6l-9.056-6.036a1.862 1.862 0 0 0-2.583 2.581L41.6 47.2a17.96 17.96 0 0 1-2.128 1.155l-4.564-9.779A1 1 0 0 0 34 38h-4a1 1 0 0 0-.906.577l-4.564 9.779A17.9 17.9 0 0 1 22.4 47.2l6.037-9.056a1.862 1.862 0 0 0-2.581-2.583L16.8 41.6a17.96 17.96 0 0 1-1.155-2.128l9.779-4.564A1 1 0 0 0 26 34v-4a1 1 0 0 0-.577-.906l-9.779-4.564A17.98 17.98 0 0 1 16.8 22.4l9.057 6.039a1.862 1.862 0 0 0 2.582-2.583L22.4 16.8a17.96 17.96 0 0 1 2.128-1.155l4.564 9.779A1 1 0 0 0 30 26h4a1 1 0 0 0 .906-.577l3.053-6.542a12.9 12.9 0 0 0 .938 1.846l-3.585 5.378a1.863 1.863 0 0 0 2.588 2.582l5.372-3.587a12.918 12.918 0 0 0 1.847.939l-6.542 3.053A1 1 0 0 0 38 30v4a1 1 0 0 0 .577.906l9.779 4.564A17.747 17.747 0 0 1 47.2 41.6Zm-9.593 7.5a17.8 17.8 0 0 1-11.214 0l4.244-9.1h2.726Zm-19.651-5.87 8.437-5.623-5.624 8.436a18.162 18.162 0 0 1-2.813-2.813ZM14 32a17.908 17.908 0 0 1 .906-5.607L24 30.637v2.726l-9.094 4.244A17.908 17.908 0 0 1 14 32Zm6.77-14.044 5.624 8.438-8.437-5.626a18.156 18.156 0 0 1 2.813-2.812Zm16.267-3.227q.033.584.115 1.152L33.363 24h-2.726l-4.244-9.094a17.786 17.786 0 0 1 10.644-.177Zm4.505 9.123-4.184 2.79 2.789-4.185a13.124 13.124 0 0 0 1.395 1.395Zm7.729 3.111a17.786 17.786 0 0 1-.177 10.644L40 33.363v-2.726l8.119-3.789q.569.083 1.152.115ZM60.977 31H59v2h1.973a28.982 28.982 0 0 1-1.818 9.165l-1.828-.757-.765 1.848 1.832.759a28.947 28.947 0 0 1-5.2 7.769l-1.4-1.4-1.409 1.416 1.4 1.4c-.35.327-.706.649-1.074.96-.448.135-.448.383-.448.843a1 1 0 0 0 .577.906.918.918 0 0 0 .434.094C51.51 56 58.5 56 58.5 56a2.5 2.5 0 0 1 0 5h-53a2.5 2.5 0 0 1 0-5h7.237a1 1 0 0 0 .643-1.767c-.4-.334-.788-.68-1.166-1.033l1.4-1.4-1.414-1.415-1.4 1.4a28.929 28.929 0 0 1-5.2-7.767l1.832-.759-.765-1.848-1.828.757A28.982 28.982 0 0 1 3.027 33H5v-2H3.025a28.818 28.818 0 0 1 1.819-9.166l1.829.757.765-1.847-1.823-.755a29.107 29.107 0 0 1 5.2-7.762l1.385 1.388 1.415-1.415-1.387-1.388a29.1 29.1 0 0 1 7.761-5.2l.755 1.823 1.848-.766-.758-1.828A28.818 28.818 0 0 1 31 3.025V5h2V3.023a28.819 28.819 0 0 1 8.171 1.463 12.962 12.962 0 0 0-4.1 8.173 20.026 20.026 0 1 0 14.27 14.272 12.965 12.965 0 0 0 8.173-4.1A28.861 28.861 0 0 1 60.977 31Z" fill="#ffffff" data-original="#000000" class=""></path></g></svg>