<svg xmlns="http://www.w3.org/2000/svg" version="1.1" xmlns:xlink="http://www.w3.org/1999/xlink" xmlns:svgjs="http://svgjs.com/svgjs" width="512" height="512" x="0" y="0" viewBox="0 0 512 512" style="enable-background:new 0 0 512 512" xml:space="preserve" class=""><g><path d="M445.42 34.833H66.58a6.583 6.583 0 0 0-6.583 6.583V97.7a6.583 6.583 0 0 0 6.583 6.583h378.84a6.583 6.583 0 0 0 6.583-6.583V41.415a6.584 6.584 0 0 0-6.583-6.582zM173.211 478.794h165.578M121.248 69.557h5.945M165.174 69.557h5.945M209.101 69.557h5.945M253.028 69.557h5.945M296.954 69.557h5.945M340.881 69.557h5.945M384.807 69.557h5.945M115.128 104.282v348.806M146.433 104.282v348.806M177.738 104.282v348.806M209.043 104.282v348.806M240.348 104.282v348.806M271.653 104.282v348.806M302.957 104.282v348.806M334.262 104.282v348.806M365.567 104.282v348.806M396.872 104.282v348.806" style="stroke-width:15;stroke-linecap:round;stroke-linejoin:round;stroke-miterlimit:10;" fill="none" stroke="#ffffff" stroke-width="15" stroke-linecap="round" stroke-linejoin="round" stroke-miterlimit="10" data-original="#000000"></path><path d="M430.385 201.001v-96.719H81.615v348.806h348.77V230.001M214.341 7.5H160.02a7.192 7.192 0 0 0-7.192 7.192v20.14h206.346v-20.14a7.192 7.192 0 0 0-7.192-7.192H243.341M175.433 504.5h265.418c6.159 0 11.151-4.993 11.151-11.152V464.24c0-6.159-4.993-11.151-11.151-11.151H71.149c-6.159 0-11.152 4.993-11.152 11.151v29.109c0 6.159 4.993 11.152 11.152 11.152h75.283" style="stroke-width:15;stroke-linecap:round;stroke-linejoin:round;stroke-miterlimit:10;" fill="none" stroke="#ffffff" stroke-width="15" stroke-linecap="round" stroke-linejoin="round" stroke-miterlimit="10" data-original="#000000"></path></g></svg>