<svg xmlns="http://www.w3.org/2000/svg" version="1.1" xmlns:xlink="http://www.w3.org/1999/xlink" xmlns:svgjs="http://svgjs.com/svgjs" width="512" height="512" x="0" y="0" viewBox="0 0 60 52" style="enable-background:new 0 0 512 512" xml:space="preserve" class=""><g><g fill="#000" fill-rule="nonzero"><path d="M0 47a5.006 5.006 0 0 0 5 5h50a4.995 4.995 0 0 0 5-5 4.961 4.961 0 0 0-2.745-4.461A30 30 0 0 0 30 0C8.116 0-6.379 22.832 2.747 42.542c-.475.24-.91.553-1.289.926A5.006 5.006 0 0 0 0 47zm2.87-2.116a3.085 3.085 0 0 1 1.481-.809l.022-.005c.452-.1.922-.093 1.371.023a1 1 0 0 0 .5-1.938 5.034 5.034 0 0 0-1.517-.139A27.89 27.89 0 0 1 2.03 31H4a1 1 0 0 0 0-2H2.025a27.815 27.815 0 0 1 3.249-12.121l1.709.987a1 1 0 1 0 1-1.732l-1.7-.984a28.2 28.2 0 0 1 8.871-8.871l.984 1.7a1 1 0 1 0 1.732-1l-.987-1.709c3.74-1.99 7.884-3.1 12.117-3.245V4a1 1 0 0 0 2 0V2.025a27.815 27.815 0 0 1 12.121 3.249l-.987 1.709a1 1 0 1 0 1.732 1l.984-1.7a28.2 28.2 0 0 1 8.871 8.871l-1.7.984a1 1 0 1 0 1 1.732l1.709-.987c1.99 3.74 3.1 7.884 3.245 12.117H56a1 1 0 0 0 0 2h1.971a27.912 27.912 0 0 1-2.693 11.016 4.667 4.667 0 0 0-1.383.114 1 1 0 0 0 .487 1.94 3 3 0 0 1 2.746 5.048c-.565.564-1.33.88-2.128.882H39.148a22 22 0 1 0-18.3 0H5a3 3 0 0 1-2.13-5.116zM30 50c-11.046 0-20-8.954-20-20s8.954-20 20-20 20 8.954 20 20c-.013 11.04-8.96 19.987-20 20z" fill="#ffffff" data-original="#000000" class=""></path><path d="M33.091 12.285c-8.828-1.552-17.45 3.636-20.214 12.163-2.763 8.527 1.177 17.787 9.237 21.708l.019.018a.76.76 0 0 0 .094.036 17.77 17.77 0 0 0 15.377.082c.093-.027.181-.066.263-.118l.019-.018c15.935-7.812 11.961-31.056-4.795-33.871zm10.457 9.243-6.7 2.649a.246.246 0 0 1-.133.01 8.861 8.861 0 0 0-3.153-2.312.131.131 0 0 1-.046-.122l.456-7.233a16.029 16.029 0 0 1 9.576 7.008zm-11.554-7.39-.472 7.487a2.119 2.119 0 0 0 1.239 2.082 6.845 6.845 0 0 1 2.45 1.8c.597.66 1.544.875 2.367.537L44.51 23.3a15.854 15.854 0 0 1 1.209 3.771l-7.186 1.858a2.081 2.081 0 0 0-1.6 1.82 6.831 6.831 0 0 1-.942 2.887 2.1 2.1 0 0 0 .207 2.422l4.671 5.649a16.059 16.059 0 0 1-3.185 2.32l-3.936-6.187a2.118 2.118 0 0 0-2.241-.947 6.908 6.908 0 0 1-3.015 0 2.113 2.113 0 0 0-2.236.94l-3.942 6.193a16.059 16.059 0 0 1-3.185-2.32l4.671-5.645a2.1 2.1 0 0 0 .212-2.423 6.818 6.818 0 0 1-.943-2.887 2.078 2.078 0 0 0-1.586-1.819l-7.2-1.862a15.854 15.854 0 0 1 1.207-3.77l6.94 2.743a2.1 2.1 0 0 0 2.367-.549 6.842 6.842 0 0 1 2.447-1.788 2.117 2.117 0 0 0 1.234-2.078l-.472-7.489a14.475 14.475 0 0 1 3.988-.001zm-5.968.382.456 7.234a.136.136 0 0 1-.041.119 9.266 9.266 0 0 0-3.149 2.3.147.147 0 0 1-.134 0l-6.706-2.652a16.029 16.029 0 0 1 9.574-7.001zM14.047 29.075l6.946 1.8a.12.12 0 0 1 .081.06 8.824 8.824 0 0 0 1.218 3.733.12.12 0 0 1-.033.118l-4.525 5.472A15.922 15.922 0 0 1 14 30c0-.312.029-.617.047-.925zm10.1 15.8 3.8-5.975a.112.112 0 0 1 .118-.053 8.944 8.944 0 0 0 3.867 0c.05-.01.1.015.123.06l3.8 5.968c-3.76 1.5-7.95 1.5-11.71 0zm18.121-4.62-4.528-5.476a.116.116 0 0 1-.029-.117 8.81 8.81 0 0 0 1.217-3.73.135.135 0 0 1 .095-.064l6.932-1.793c.018.308.047.613.047.925a15.922 15.922 0 0 1-3.736 10.255z" fill="#ffffff" data-original="#000000" class=""></path><path d="M25 30a5 5 0 1 0 10 0 5 5 0 0 0-10 0zm5-3a3 3 0 1 1 0 6 3 3 0 0 1 0-6z" fill="#ffffff" data-original="#000000" class=""></path></g></g></svg>